<?xml version="1.0" encoding="utf-8"?>
<!-- Generator: Adobe Illustrator 17.1.0, SVG Export Plug-In . SVG Version: 6.00 Build 0)  -->
<!DOCTYPE svg PUBLIC "-//W3C//DTD SVG 1.1//EN" "http://www.w3.org/Graphics/SVG/1.1/DTD/svg11.dtd">
<svg version="1.1" id="Camada_1" xmlns="http://www.w3.org/2000/svg" xmlns:xlink="http://www.w3.org/1999/xlink" x="0px" y="0px"
	 width="1024px" height="1024px" viewBox="0 0 1024 1024" enable-background="new 0 0 1024 1024" xml:space="preserve">
<path fill="#27AE60" d="M510,1019.1c-280.7,0-509-228.4-509-509S229.4,1,510,1c84.7,0,168.6,21.3,242.7,61.5
	c13.7,7.5,18.8,24.6,11.3,38.3c-7.5,13.7-24.6,18.8-38.3,11.3C660,76.4,585.4,57.5,510,57.5c-249.5,0-452.5,203-452.5,452.5
	s203,452.5,452.5,452.5s452.5-203,452.5-452.5c0-95.6-29.4-187-85.1-264.2c-9.1-12.7-6.3-30.3,6.4-39.5c12.7-9.1,30.3-6.3,39.5,6.4
	c62.7,87,95.8,189.8,95.8,297.3C1019.1,790.7,790.7,1019.1,510,1019.1z"/>
<path fill="#CFF09E" d="M544.4,708.9c-3.2-0.4-6.4-0.7-9.6-1l-1.9-0.2c-2.9-0.2-5.7-0.5-8.5-0.7l-0.9-0.1c-3.2-0.2-6.3-0.4-9.4-0.5
	l-1.3-0.1c-2.8-0.1-5.6-0.2-8.3-0.2l-1.2,0c-3.1-0.1-6.2-0.1-9.2-0.1c-12.5,0-25.3,0.6-38,1.6c-5.4,0.4-10.9,1-16.3,1.6
	c-64.7,7.5-111.5,25.5-112,25.6c-3.1,1.2-6.3,2-9.6,2.2c-16.3,1.3-31.8-9.5-37.5-26.3c-7-20.7,2.6-43.5,21.4-50.9
	c5.5-2.1,55.9-21.2,127.3-29.7c6.9-0.8,13.9-1.5,20.8-2.1c11.8-1,23.7-1.6,35.3-1.8l0-0.1l7.7,0c20.8-0.1,41.4,1.1,61.2,3.5
	c50.4,6.2,97.1,20.5,138.9,42.5c17,9,25.2,30.3,19,49.5c-0.4,1.3-0.9,2.5-1.4,3.7c-5.5,12.7-16.9,21.2-29.8,22.3
	c-6.4,0.5-12.9-0.8-18.8-3.9l-0.8-0.4c-2.8-1.5-5.6-2.9-8.5-4.2c-1-0.5-1.9-0.9-2.9-1.4c-2.5-1.2-5.1-2.3-7.6-3.5l-1.8-0.8
	c-3.1-1.3-6.1-2.6-9.2-3.8l-2.7-1c-2.5-1-5-1.9-7.5-2.7l-2.2-0.8c-3.1-1.1-6.2-2.1-9.4-3.1l-2.3-0.7c-2.6-0.8-5.1-1.5-7.7-2.2
	l-2.4-0.7c-3.2-0.8-6.3-1.6-9.5-2.4l-1.6-0.4c-2.7-0.6-5.5-1.2-8.2-1.8l-2.4-0.5c-3.2-0.6-6.4-1.2-9.6-1.8c-3.4-0.6-6.5-1.1-9.6-1.5
	l-2.2-0.3c-3.1-0.4-6.1-0.8-9.1-1.2"/>
<path fill="#27AE60" d="M683.2,776.1c-11.7,1-23.5-1.4-34.1-7l-0.6-0.3c-0.1-0.1-0.2-0.1-0.3-0.2c-2.5-1.3-5.1-2.6-7.6-3.8
	c-0.9-0.4-1.8-0.8-2.7-1.3c-2.3-1.1-4.6-2.1-6.9-3.1l-1.8-0.8c-2.7-1.2-5.5-2.3-8.2-3.3l-2.5-1c-2.2-0.8-4.5-1.7-6.8-2.5l-2.3-0.8
	c-2.6-0.9-5.5-1.8-8.3-2.7l-2.1-0.6c-2.4-0.7-4.7-1.4-7.1-2l-2.4-0.7c-2.7-0.7-5.6-1.5-8.5-2.1l-1.4-0.3c-2.6-0.6-5.2-1.2-7.7-1.7
	l-2.4-0.5c-2.8-0.6-5.8-1.1-8.7-1.6c-3.1-0.5-6-1-8.9-1.4l-2.1-0.3c-2.8-0.4-5.6-0.8-8.4-1.1c-0.1,0-0.3,0-0.4-0.1
	c-2.9-0.3-5.9-0.6-8.8-0.9l-1.7-0.2c-2.6-0.2-5.3-0.4-7.9-0.6l-1.1-0.1c-2.8-0.2-5.7-0.3-8.6-0.5l-1.2,0c-2.7-0.1-5.3-0.2-7.9-0.2
	l-1.2,0c-2.8,0-5.6-0.1-8.5-0.1c-16.8,0-34.1,1.1-51.1,3.1c-60.4,7-104.6,23.8-105.1,23.9c-5.6,2.2-11.4,3.5-17.4,4
	c-29.3,2.4-56.7-16.2-66.6-45.4c-11.9-34.8,5.1-73.5,37.8-86.3c5.9-2.3,59.4-22.5,134.3-31.4c19.2-2.3,38.3-3.6,57-4
	c0.8-0.1,1.5-0.1,2.3-0.1l7.7,0c22-0.1,43.8,1.2,64.7,3.7c53.8,6.6,103.8,21.9,148.6,45.5c29,15.3,43.1,51.1,32.7,83.2
	c-0.7,2.1-1.5,4.2-2.4,6.3C727,759.1,706.5,774.2,683.2,776.1z M674.3,718.5l0.6,0.3c0.1,0.1,0.2,0.1,0.3,0.2
	c1.1,0.6,2.2,0.8,3.3,0.8c2.5-0.2,4.9-2.3,6.2-5.4c0.2-0.4,0.3-0.8,0.4-1.2c2-6.1-0.4-13.2-5.3-15.8
	c-38.7-20.4-82.1-33.7-129.1-39.4c-18.6-2.3-38-3.4-57.6-3.3l-5.8,0c-0.5,0-1,0.1-1.5,0.1c-17.4,0.3-35.2,1.5-53.3,3.7
	c-67.9,8.1-115.2,25.9-120.4,27.9c-4.2,1.6-7.2,8.6-4.9,15.4c1.5,4.4,5.1,7.5,8.5,7.3c0.5,0,1-0.2,1.6-0.4
	c0.4-0.2,49.8-19.3,119-27.4c19.1-2.2,38.6-3.4,57.5-3.4c3.2,0,6.5,0,9.8,0.1l1.3,0c2.9,0.1,5.8,0.1,8.8,0.3l1.3,0
	c3.5,0.1,6.8,0.3,10.2,0.5l1.1,0.1c2.9,0.2,5.9,0.4,9,0.7l1.9,0.2c3.5,0.3,6.9,0.7,10.4,1.1c0.2,0,0.3,0,0.5,0.1
	c3.2,0.4,6.4,0.8,9.7,1.3l2.3,0.3c3.4,0.5,6.8,1,10.4,1.6c3.5,0.6,6.9,1.3,10.3,1.9l2.6,0.5c3,0.6,5.9,1.3,8.9,2l1.5,0.3
	c3.7,0.9,7.1,1.7,10.5,2.6l2.6,0.7c2.8,0.8,5.6,1.6,8.4,2.4l2.3,0.7c3.6,1.1,7,2.2,10.4,3.4l2.5,0.9c2.7,0.9,5.4,1.9,8.2,3l2.8,1.1
	c3.6,1.4,6.9,2.7,10.3,4.2c0.1,0,0.2,0.1,0.3,0.1l1.8,0.8c2.6,1.2,5.4,2.4,8.2,3.7c1.1,0.5,2.1,1,3.2,1.5
	C668.2,715.4,671.3,716.9,674.3,718.5z"/>
<path fill="#CFF09E" d="M766.3,430.8c-8.7,0.7-17.5-1.1-25.5-5.3l-2.7-1.4c-2.1-1.1-4.1-2.1-6.2-3.2c-1.2-0.6-2.4-1.2-3.6-1.8
	l-0.6-0.3c-1.7-0.8-3.4-1.7-5.2-2.5c-1.4-0.7-2.8-1.3-4.2-2c-1.9-0.9-3.8-1.7-5.7-2.5c-1.6-0.7-3.2-1.4-4.7-2.1
	c-2.5-1.1-4.9-2.1-7.4-3.1c-1.1-0.5-4.3-1.7-4.3-1.7c-1.7-0.7-3.4-1.3-5.2-2c-1.5-0.6-2.9-1.1-4.4-1.6c-1.8-0.7-3.6-1.3-5.4-1.9
	c0,0-3.2-1.1-4.1-1.4c-2.9-1-5.7-1.9-8.6-2.8c-1.2-0.4-2.3-0.7-3.5-1.1l-0.8-0.3c-1.7-0.5-3.4-1-5.1-1.6c-1.6-0.5-3.1-0.9-4.7-1.4
	c-1.6-0.5-3.3-0.9-4.9-1.4c0,0-3.4-1-4.5-1.3c-2.8-0.8-5.6-1.5-8.4-2.2c-1.1-0.3-4.7-1.1-4.7-1.1c-1.6-0.4-3.1-0.7-4.7-1.1
	c-1.7-0.4-3.3-0.7-5-1.1c-1.5-0.3-4.7-1-4.7-1c-1.6-0.3-3.2-0.7-4.7-1c-1.2-0.2-4.5-0.9-4.5-0.9c-3-0.6-6-1.1-9-1.6l-3.9-0.7
	c-1.8-0.3-3.6-0.6-5.5-0.9l-3.7-0.6c-1.9-0.3-3.8-0.6-5.6-0.8l-2.8-0.4c-4-0.5-8-1-11.9-1.4l-2-0.2c-2.1-0.2-4.2-0.4-6.2-0.6
	l-2.6-0.2c-2.1-0.2-4.2-0.4-6.3-0.5l-1.6-0.1c-7.2-0.6-14.5-1-21.6-1.3l-1.1,0c-2.5-0.1-4.9-0.2-7.3-0.3
	c-10.1-0.3-20.3-0.4-30.5-0.2c-15,0.3-30.4,1-45.8,2.3c-108.5,8.9-187.7,39.5-188.4,39.8c-4.2,1.6-8.6,2.7-13,3
	c-22.1,1.8-43-12.8-50.9-35.7c-9.6-28,3.4-59,29-69.1c3.1-1.2,77.7-30.3,184.1-42.9c10-1.2,20.1-2.2,30-3
	c52-4.3,102.7-3.5,150.7,2.4c72.8,8.9,140.3,29.6,200.6,61.3c16.5,8.7,27.4,26.4,28.4,46.2c0.4,7.2-0.5,14.2-2.7,20.9
	c-0.6,1.7-1.2,3.4-1.9,5.1C799.3,417.8,783.8,429.3,766.3,430.8z"/>
<path fill="#27AE60" d="M768.6,458.9c-14.1,1.2-28.2-1.8-41-8.5l-2.4-1.3c-2-1-3.9-2-5.9-3c-1-0.5-2-1-3.1-1.5l-0.9-0.4
	c-1.6-0.8-3.2-1.6-4.9-2.3c-1.3-0.6-2.7-1.2-4-1.9c-1.8-0.8-3.5-1.6-5.3-2.4c-1.5-0.7-3-1.3-4.5-1.9c-2.3-1-4.6-1.9-6.9-2.9
	c-1-0.4-4-1.6-4-1.6c-1.6-0.6-3.2-1.3-4.9-1.9c-1.4-0.5-2.8-1-4.1-1.6c-1.7-0.6-3.4-1.2-5-1.8c-0.1,0-3-1.1-3.8-1.4
	c-2.7-0.9-5.3-1.8-8-2.7c-1.1-0.3-2.1-0.7-3.2-1l-0.9-0.3c-1.6-0.5-3.2-1-4.8-1.5c-1.5-0.4-2.9-0.9-4.4-1.3
	c-1.5-0.4-3.1-0.9-4.6-1.3c-0.1,0-3.2-0.9-4.3-1.2c-2.6-0.7-5.3-1.4-7.9-2c-1-0.2-4.4-1-4.4-1c-1.5-0.4-3-0.7-4.5-1
	c-1.6-0.4-3.2-0.7-4.7-1.1c-1.4-0.3-4.5-1-4.5-1c-1.5-0.3-2.9-0.6-4.4-0.9c-1.1-0.2-4.2-0.8-4.2-0.8c-2.9-0.5-5.7-1.1-8.6-1.5
	l-3.9-0.7c-1.5-0.3-3.3-0.5-5-0.8l-3.6-0.5c-1.7-0.3-3.5-0.5-5.2-0.8l-2.7-0.4c-3.8-0.5-7.6-1-11.4-1.4l-2-0.2
	c-1.8-0.2-3.8-0.4-5.8-0.6l-2.6-0.2c-2-0.2-4-0.4-6-0.5L545,400c-6.9-0.5-13.8-1-20.7-1.2l-1.1,0c-2.3-0.1-4.6-0.2-6.9-0.2
	c-9.6-0.3-19.5-0.3-29.2-0.2c-14.4,0.2-29.2,1-44,2.2c-103.3,8.5-179.8,37.7-180.5,38c-6.6,2.6-13.7,4.3-20.9,4.9
	c-35.1,2.9-67.9-19.6-79.9-54.7c-14.4-42.1,6-89,45.5-104.6c3.2-1.3,81.2-31.6,191.1-44.7c64.7-7.7,128.1-7.9,187.5-0.6
	c76.2,9.3,147,31,210.3,64.4c25.2,13.3,41.9,40,43.5,69.7c0.6,10.6-0.8,21.1-4,31.2c-0.8,2.6-1.8,5.1-2.9,7.6
	C821.1,438.6,796.5,456.6,768.6,458.9z M706.6,378.8c0,0,3.3,1.3,4.5,1.8c2.7,1.1,5.3,2.2,7.9,3.3c1.7,0.7,3.4,1.5,5,2.2
	c2,0.9,4.1,1.8,6.1,2.7c1.5,0.7,3,1.4,4.5,2.1c1.8,0.9,3.7,1.7,5.5,2.6l0.9,0.4c1.2,0.6,2.4,1.2,3.6,1.7c2.2,1.1,4.4,2.2,6.6,3.3
	l2.6,1.3c3.4,1.8,6.9,2.5,10.2,2.3c7.1-0.6,13.6-5.7,16.9-13.3c0.4-0.8,0.7-1.7,1-2.5c1.1-3.4,1.6-7,1.4-10.7
	c-0.5-9.8-5.8-18.7-13.4-22.7C712.6,323.1,648.4,303.5,579,295c-54.9-6.7-113.7-6.5-174,0.6c-102.8,12.2-174.1,40-177.1,41.1
	c-11.6,4.5-17.3,19.9-12.7,33.7c3.6,10.6,12.6,17.4,21.8,16.6c1.7-0.1,3.3-0.5,5-1.2c3.5-1.3,84.2-32.5,196.5-41.7
	c16-1.3,32.1-2.1,47.7-2.4c10.6-0.2,21.3-0.1,31.8,0.2c2.5,0.1,5.1,0.2,7.6,0.3l1.1,0c7.5,0.3,15.1,0.8,22.6,1.4l1.5,0.1
	c2.3,0.2,4.5,0.4,6.7,0.6l2.7,0.3c2.2,0.2,4.4,0.4,6.6,0.7l2.1,0.2c4.1,0.5,8.3,1,12.5,1.5l2.8,0.4c2.1,0.3,4.1,0.6,6.1,0.9l3.7,0.6
	c2,0.3,3.9,0.6,5.8,0.9l4.1,0.7c3.2,0.5,6.4,1.1,9.5,1.7l0,0c0,0,3.5,0.7,4.8,0.9c1.6,0.3,3.3,0.7,5,1c0,0,3.4,0.7,4.9,1.1
	c1.8,0.4,3.5,0.8,5.3,1.2c1.6,0.4,3.3,0.8,5,1.2c0,0,3.8,0.9,4.9,1.2c3,0.7,6,1.5,8.9,2.3c1.2,0.3,4.8,1.3,4.8,1.3
	c1.7,0.5,3.4,1,5.2,1.5c1.6,0.5,3.3,1,4.9,1.4c1.8,0.5,3.6,1.1,5.4,1.7l0.8,0.2c1.3,0.4,2.6,0.8,3.8,1.2c3,1,6,2,9.1,3
	c1,0.3,4.4,1.6,4.4,1.6c1.8,0.6,3.7,1.3,5.6,2c1.6,0.6,3.1,1.2,4.7,1.8C702.9,377.3,704.8,378.1,706.6,378.8L706.6,378.8z"/>
<path fill="#CFF09E" d="M715.3,595.1c-0.2,0-0.5,0-0.7,0c-0.3,0-0.7,0-1,0l-0.6,0c-0.4,0-0.7,0-1.1,0l-0.4,0
	c-5.6-0.4-10.8-1.9-15.8-4.5c-3.6-1.9-7.4-3.8-11.8-5.9l-2.3-1.1c-7.7-3.6-15.7-7.1-23.8-10.2l-2.5-1c-7.8-2.9-15.8-5.7-23.8-8.1
	l-2.7-0.8c-3.8-1.1-7.7-2.2-11.5-3.2l-0.3-0.1c-4.1-1.1-8-2-12-2.9l-2.7-0.6c-3.8-0.8-7.5-1.6-11.2-2.4l-0.3-0.1
	c-4.2-0.8-8.1-1.5-12-2.2l-2.6-0.4c-3.8-0.6-7.5-1.2-11.2-1.7l-0.3,0c-4.1-0.6-8-1-11.9-1.4l-2.2-0.2c-3.8-0.4-7.6-0.8-11.4-1.1
	c-4-0.3-8-0.6-11.9-0.8l-1.6-0.1c-7.7-0.4-15.5-0.7-23.2-0.7l-0.7,0c-3.8,0-7.7,0-11.4,0l-2.8,0c-12.1,0.2-24.3,0.8-36.5,1.8
	c-6.4,0.5-13,1.2-19.4,1.9c-75.8,8.8-130.8,29.6-133.1,30.5c-3.5,1.4-7.2,2.2-10.9,2.5c-18.7,1.5-36.4-10.8-43-30.1
	c-8.1-23.7,2.9-49.8,24.5-58.3c2.5-1,63.4-24.7,150.5-35.1c8.2-1,16.4-1.8,24.6-2.5c42.4-3.5,83.8-2.8,123.1,2
	c59.5,7.3,114.7,24.2,164,50.2c3.8,2,7.4,4.6,10.5,7.8c12.4,12.5,16.8,31.7,11.3,48.9c-0.5,1.4-1,2.9-1.6,4.3
	c-6.3,14.5-19.4,24.3-34.2,25.5l0,0c-0.6,0-1.1,0.1-1.7,0.1"/>
<path fill="#27AE60" d="M719.7,623.2c-1,0.1-2,0.1-3,0.2c-0.6,0-1.1,0-1.7,0.1c-0.8,0-1.4,0-2.1,0l-0.3,0c-0.8,0-1.5,0-2.3-0.1
	c-0.2,0-0.4,0-0.6,0l-0.4,0c-9.2-0.6-18.2-3.2-26.7-7.7c-3.2-1.7-6.8-3.5-10.9-5.5l-2.2-1c-7-3.3-14.4-6.5-21.8-9.3l-2.4-0.9
	c-7.1-2.7-14.5-5.2-22-7.5l-2.6-0.8c-3.5-1-7-2-10.6-3l-0.4-0.1c-3.7-1-7.4-1.9-11-2.7l-2.6-0.6c-3.4-0.8-6.9-1.5-10.4-2.2
	c-0.1,0-0.2,0-0.3-0.1l-0.2,0c-3.8-0.7-7.5-1.4-11.1-2l-2.5-0.4c-3.4-0.6-7-1.1-10.5-1.6c0,0-0.4-0.1-0.4-0.1
	c-3.7-0.5-7.4-0.9-11.1-1.3l-2.1-0.2c-3.6-0.4-7.2-0.7-10.7-1c-3.8-0.3-7.5-0.6-11.2-0.8l-1.6-0.1c-7.3-0.4-14.7-0.6-21.9-0.7
	l-0.7,0c-3.6,0-7.2,0-10.8,0l-2.8,0c-17.3,0.3-35.3,1.5-53,3.6c-72.5,8.4-125.7,28.6-126.2,28.8c-5.9,2.3-12.2,3.8-18.7,4.3
	c-31.6,2.6-61.3-17.6-72-49.2c-12.9-37.7,5.5-79.8,40.9-93.7c2.7-1.1,66.9-26.1,157.5-36.8c53.4-6.3,105.4-6.5,154.4-0.5
	c63,7.7,121.4,25.6,173.8,53.2c6.4,3.4,12.2,7.7,17.4,12.9c19.8,20,26.8,50.4,18,77.5c-0.7,2.3-1.6,4.6-2.6,6.8
	C767,604.9,744.8,621.1,719.7,623.2z M714.3,566.9c0.1,0,0.2,0,0.3,0l0.4,0c4.2-0.3,8.3-3.6,10.4-8.6c0.2-0.6,0.5-1.1,0.7-1.7
	c2.3-7.1,0.5-15.3-4.5-20.3c-1.1-1.1-2.3-2-3.6-2.7c-46.2-24.4-98.1-40.2-154.3-47.1c-44.5-5.4-92-5.3-140.9,0.5
	c-83.4,9.9-141,32.3-143.4,33.3c-7.5,2.9-11.3,13.6-8.1,22.9c2.8,8.1,10.3,12.9,16.8,10.4c2.6-1,60.6-23,140.1-32.2
	c19.6-2.3,39.3-3.6,58.6-4l2.9,0c3.9-0.1,7.9-0.1,12,0l0.8,0c8.1,0.1,16.3,0.3,24.5,0.8l1.7,0.1c4.2,0.2,8.3,0.5,12.6,0.9
	c4,0.3,8,0.7,12.1,1.1l2.2,0.2c4.2,0.5,8.4,1,12.8,1.5c0.1,0,0.4,0.1,0.4,0.1c3.8,0.5,7.8,1.1,11.8,1.8l2.7,0.4
	c4.3,0.7,8.4,1.5,12.9,2.3c0.1,0,0.2,0,0.3,0.1l0.2,0c3.9,0.8,7.9,1.6,11.9,2.5l2.8,0.6c4.9,1.1,9,2.1,12.9,3.2
	c0.1,0,0.2,0.1,0.3,0.1l0.3,0.1c3.5,0.9,7.5,2.1,12,3.4l2.8,0.8c8.7,2.7,17.3,5.6,25.7,8.7l2.6,1c8.8,3.4,17.4,7.1,25.7,11l2.3,1.1
	c4.9,2.3,9,4.4,12.9,6.5c1.5,0.8,2.9,1.2,4.5,1.3c0.1,0,0.1,0,0.2,0L714.3,566.9C714.3,566.9,714.3,566.9,714.3,566.9z"/>
</svg>
