<svg xmlns="http://www.w3.org/2000/svg" xmlns:xlink="http://www.w3.org/1999/xlink" viewBox="-1391 955 1271 1295">
  <defs>
    <style>
      .cls-1 {
        fill: #fff;
      }

      .cls-2 {
        fill: #ff8e01;
      }

      .cls-3 {
        fill: url(#linear-gradient);
      }

      .cls-4 {
        fill: #ff3b32;
      }
    </style>
    <linearGradient id="linear-gradient" y1="0.5" x2="1" y2="0.5" gradientUnits="objectBoundingBox">
      <stop offset="0" stop-color="#ff8e01"/>
      <stop offset="1" stop-color="#ff3b32"/>
    </linearGradient>
  </defs>
  <g id="Group_104" data-name="Group 104" transform="translate(-1391)">
    <g id="Group_103" data-name="Group 103">
      <rect id="Rectangle_8" data-name="Rectangle 8" class="cls-1" width="1271" height="1295" rx="635.5" transform="translate(0 955)"/>
      <g id="icon" transform="translate(123 1091)">
        <path id="Path_49" data-name="Path 49" class="cls-2" d="M559.3,707.3c-3.2-.4-6.3-.7-9.4-1l-1.8-.2c-2.8-.2-5.6-.5-8.4-.6l-.9-.1c-3.1-.2-6.2-.4-9.3-.5h-1.3c-2.8-.1-5.5-.2-8.2-.2h-1.2c-3-.1-6.1-.1-9-.1-12.3,0-24.8.6-37.3,1.6-5.3.4-10.7,1-16,1.6-63.6,7.4-109.6,25-110,25.2a34.718,34.718,0,0,1-9.4,2.2c-16.1,1.3-31.2-9.3-36.9-25.9-6.9-20.3,2.5-42.7,21-50,5.4-2.1,54.9-20.8,125-29.1,6.8-.8,13.7-1.5,20.4-2.1,11.6-1,23.2-1.5,34.7-1.8v-.1h7.5a473.46,473.46,0,0,1,60.1,3.5c49.5,6.1,95.4,20.1,136.4,41.7,16.7,8.8,24.8,29.7,18.6,48.6-.4,1.2-.9,2.5-1.4,3.7-5.4,12.5-16.6,20.8-29.3,21.9a34.35,34.35,0,0,1-18.5-3.8l-.7-.4c-2.8-1.4-5.5-2.8-8.3-4.2-1-.5-1.9-.9-2.9-1.4-2.5-1.2-5-2.3-7.5-3.4l-1.8-.8c-3-1.3-6-2.5-9.1-3.7l-2.7-1c-2.5-.9-4.9-1.8-7.4-2.7l-2.2-.8c-3.1-1.1-6.1-2-9.2-3l-2.3-.7c-2.5-.8-5-1.5-7.6-2.2l-2.4-.7-9.3-2.4-1.6-.4-8.1-1.8-2.4-.5c-3.2-.6-6.3-1.2-9.4-1.8-3.3-.6-6.4-1-9.4-1.5l-2.2-.3-9-1.2"/>
        <path id="Path_50" data-name="Path 50" class="cls-2" d="M775.1,434.1a45.61,45.61,0,0,1-25-5.2l-2.6-1.3c-2-1-4-2.1-6.1-3.1-1.2-.6-2.4-1.2-3.5-1.7l-.6-.3-5.1-2.4c-1.4-.7-2.8-1.3-4.2-1.9-1.9-.8-3.7-1.7-5.6-2.5-1.5-.7-3.1-1.4-4.7-2-2.4-1-4.9-2-7.3-3-1.1-.4-4.2-1.7-4.2-1.7-1.7-.7-3.4-1.3-5.1-2-1.4-.5-2.9-1.1-4.3-1.6-1.8-.6-3.5-1.3-5.3-1.9,0,0-3.1-1.1-4-1.4-2.8-1-5.6-1.9-8.4-2.8-1.1-.4-2.3-.7-3.5-1.1l-.8-.3c-1.7-.5-3.3-1-5-1.5-1.5-.5-3-.9-4.6-1.3-1.6-.5-3.2-.9-4.8-1.4,0,0-3.3-.9-4.5-1.2-2.8-.7-5.5-1.5-8.3-2.1-1.1-.3-4.6-1.1-4.6-1.1-1.5-.4-3.1-.7-4.6-1.1-1.6-.4-3.3-.7-4.9-1.1-1.4-.3-4.6-1-4.6-1-1.5-.3-3.1-.6-4.6-1-1.2-.2-4.4-.8-4.4-.8-3-.6-5.9-1.1-8.9-1.6l-3.8-.7-5.4-.9-3.6-.5c-1.8-.3-3.7-.5-5.5-.8l-2.8-.4c-3.9-.5-7.8-1-11.7-1.4l-1.9-.2c-2-.2-4.1-.4-6.1-.6l-2.6-.2c-2.1-.2-4.2-.4-6.2-.5l-1.5-.1c-7-.5-14.2-1-21.3-1.3h-1.1l-7.2-.3c-9.9-.3-20-.3-30-.2-14.7.3-29.9,1-45,2.3C348.7,385.7,271,415.7,270.2,416a46.99,46.99,0,0,1-12.7,3c-21.7,1.8-42.3-12.6-50-35-9.4-27.5,3.4-58,28.5-67.9,3.1-1.2,76.4-29.7,180.9-42.1,9.8-1.2,19.7-2.2,29.5-3,51-4.2,100.9-3.4,148,2.4,71.5,8.8,137.8,29,197,60.3,16.2,8.5,26.9,25.9,27.9,45.4a55.2,55.2,0,0,1-2.7,20.6,42.9,42.9,0,0,1-1.9,5C807.6,421.4,792.3,432.7,775.1,434.1Z"/>
        <path id="Path_51" data-name="Path 51" class="cls-2" d="M724.7,595.6H721a40.033,40.033,0,0,1-15.5-4.4c-3.5-1.9-7.3-3.8-11.6-5.8l-2.2-1.1c-7.6-3.6-15.5-6.9-23.4-10l-2.5-.9c-7.6-2.9-15.5-5.6-23.4-8l-2.6-.8c-3.8-1.1-7.5-2.2-11.3-3.2l-.3-.1c-4-1.1-7.9-2-11.8-2.9l-2.7-.6c-3.7-.8-7.4-1.6-11-2.3l-.3-.1c-4.1-.8-8-1.5-11.8-2.1l-2.5-.4c-3.7-.6-7.4-1.2-11-1.6h-.3c-4-.5-7.9-1-11.7-1.4l-2.2-.2c-3.8-.4-7.5-.7-11.2-1-4-.3-7.8-.6-11.7-.8l-1.6-.1c-7.6-.4-15.3-.6-22.8-.7H501c-11.8.2-23.9.8-35.9,1.8-6.3.5-12.7,1.2-19,1.9-74.5,8.6-128.5,29.1-130.7,29.9a38.818,38.818,0,0,1-10.7,2.5c-18.4,1.5-35.7-10.7-42.2-29.6-7.9-23.2,2.9-48.9,24.1-57.2,2.5-1,62.3-24.3,147.8-34.4,8-1,16.1-1.8,24.1-2.4,41.7-3.4,82.4-2.8,120.9,1.9,58.5,7.2,112.7,23.7,161.1,49.3a44.985,44.985,0,0,1,10.3,7.6c12.2,12.3,16.5,31.2,11.1,48.1-.5,1.4-1,2.8-1.6,4.2-6.2,14.3-19.1,23.9-33.6,25.1h0c-.6,0-1.1.1-1.7.1"/>
        <g id="Group_5" data-name="Group 5">
          <path id="Path_52" data-name="Path 52" class="cls-3" d="M512,1012C236.3,1012,12,787.7,12,512S236.3,12,512,12A500.286,500.286,0,0,1,750.3,72.4a27.722,27.722,0,0,1-26.5,48.7A445.58,445.58,0,0,0,512,67.5C266.9,67.5,67.5,266.9,67.5,512S266.9,956.5,512,956.5,956.5,757.1,956.5,512a441.06,441.06,0,0,0-83.6-259.5A27.8,27.8,0,1,1,918,220c61.6,85.4,94.1,186.4,94.1,292C1012,787.7,787.7,1012,512,1012Z"/>
          <circle id="Ellipse_8" data-name="Ellipse 8" class="cls-4" cx="53.7" cy="53.7" r="53.7" transform="translate(764.3 109.7)"/>
        </g>
      </g>
    </g>
  </g>
</svg>
