<?xml version="1.0" encoding="utf-8"?>
<!-- Generator: Adobe Illustrator 17.1.0, SVG Export Plug-In . SVG Version: 6.00 Build 0)  -->
<!DOCTYPE svg PUBLIC "-//W3C//DTD SVG 1.1//EN" "http://www.w3.org/Graphics/SVG/1.1/DTD/svg11.dtd">
<svg version="1.1" id="Camada_1" xmlns="http://www.w3.org/2000/svg" xmlns:xlink="http://www.w3.org/1999/xlink" x="0px" y="0px"
	 width="732.2px" height="194.2px" viewBox="0 0 732.2 194.2" enable-background="new 0 0 732.2 194.2" xml:space="preserve">
<g>
	<path fill="#27AE60" d="M97.3,188.2c-51.3,0-93.1-41.8-93.1-93.1S45.9,2,97.3,2c15.5,0,30.8,3.9,44.4,11.2c2.5,1.4,3.4,4.5,2.1,7
		c-1.4,2.5-4.5,3.4-7,2.1c-12-6.5-25.7-10-39.4-10c-45.6,0-82.8,37.1-82.8,82.8s37.1,82.8,82.8,82.8S180,140.7,180,95.1
		c0-17.5-5.4-34.2-15.6-48.3c-1.7-2.3-1.1-5.5,1.2-7.2c2.3-1.7,5.5-1.1,7.2,1.2c11.5,15.9,17.5,34.7,17.5,54.4
		C190.4,146.4,148.6,188.2,97.3,188.2z"/>
	<path fill="#CFF09E" d="M103.6,131.5c-0.6-0.1-1.2-0.1-1.8-0.2l-0.3,0c-0.5,0-1-0.1-1.6-0.1l-0.2,0c-0.6,0-1.2-0.1-1.7-0.1l-0.2,0
		c-0.5,0-1,0-1.5,0l-0.2,0c-0.6,0-1.1,0-1.7,0c-2.3,0-4.6,0.1-6.9,0.3c-1,0.1-2,0.2-3,0.3c-11.8,1.4-20.4,4.7-20.5,4.7
		c-0.6,0.2-1.2,0.4-1.7,0.4c-3,0.2-5.8-1.7-6.9-4.8c-1.3-3.8,0.5-8,3.9-9.3c1-0.4,10.2-3.9,23.3-5.4c1.3-0.1,2.5-0.3,3.8-0.4
		c2.2-0.2,4.3-0.3,6.5-0.3l0,0l1.4,0c3.8,0,7.6,0.2,11.2,0.6c9.2,1.1,17.8,3.7,25.4,7.8c3.1,1.6,4.6,5.5,3.5,9.1
		c-0.1,0.2-0.2,0.5-0.3,0.7c-1,2.3-3.1,3.9-5.5,4.1c-1.2,0.1-2.4-0.2-3.4-0.7l-0.1-0.1c-0.5-0.3-1-0.5-1.5-0.8
		c-0.2-0.1-0.4-0.2-0.5-0.3c-0.5-0.2-0.9-0.4-1.4-0.6l-0.3-0.1c-0.6-0.2-1.1-0.5-1.7-0.7l-0.5-0.2c-0.5-0.2-0.9-0.3-1.4-0.5
		l-0.4-0.1c-0.6-0.2-1.1-0.4-1.7-0.6l-0.4-0.1c-0.5-0.1-0.9-0.3-1.4-0.4l-0.4-0.1c-0.6-0.2-1.2-0.3-1.7-0.4l-0.3-0.1
		c-0.5-0.1-1-0.2-1.5-0.3l-0.4-0.1c-0.6-0.1-1.2-0.2-1.8-0.3c-0.6-0.1-1.2-0.2-1.8-0.3l-0.4-0.1
		C104.7,131.6,104.2,131.5,103.6,131.5"/>
	<path fill="#27AE60" d="M128.9,143.8c-2.1,0.2-4.3-0.3-6.2-1.3l-0.1-0.1c0,0,0,0-0.1,0c-0.5-0.2-0.9-0.5-1.4-0.7
		c-0.2-0.1-0.3-0.2-0.5-0.2c-0.4-0.2-0.8-0.4-1.3-0.6l-0.3-0.1c-0.5-0.2-1-0.4-1.5-0.6l-0.5-0.2c-0.4-0.2-0.8-0.3-1.2-0.5l-0.4-0.1
		c-0.5-0.2-1-0.3-1.5-0.5l-0.4-0.1c-0.4-0.1-0.9-0.3-1.3-0.4l-0.4-0.1c-0.5-0.1-1-0.3-1.6-0.4l-0.2-0.1c-0.5-0.1-0.9-0.2-1.4-0.3
		l-0.4-0.1c-0.5-0.1-1.1-0.2-1.6-0.3c-0.6-0.1-1.1-0.2-1.6-0.3l-0.4-0.1c-0.5-0.1-1-0.1-1.5-0.2c0,0-0.1,0-0.1,0
		c-0.5-0.1-1.1-0.1-1.6-0.2l-0.3,0c-0.5,0-1-0.1-1.4-0.1l-0.2,0c-0.5,0-1-0.1-1.6-0.1l-0.2,0c-0.5,0-1,0-1.4,0l-0.2,0
		c-0.5,0-1,0-1.6,0c-3.1,0-6.2,0.2-9.4,0.6c-11,1.3-19.1,4.3-19.2,4.4c-1,0.4-2.1,0.6-3.2,0.7c-5.4,0.4-10.4-3-12.2-8.3
		c-2.2-6.4,0.9-13.4,6.9-15.8c1.1-0.4,10.9-4.1,24.6-5.7c3.5-0.4,7-0.7,10.4-0.7c0.1,0,0.3,0,0.4,0l1.4,0c4,0,8,0.2,11.8,0.7
		c9.8,1.2,19,4,27.2,8.3c5.3,2.8,7.9,9.3,6,15.2c-0.1,0.4-0.3,0.8-0.4,1.1C136.9,140.7,133.2,143.4,128.9,143.8z M127.3,133.2
		l0.1,0.1c0,0,0,0,0.1,0c0.2,0.1,0.4,0.2,0.6,0.1c0.5,0,0.9-0.4,1.1-1c0-0.1,0.1-0.1,0.1-0.2c0.4-1.1-0.1-2.4-1-2.9
		c-7.1-3.7-15-6.2-23.6-7.2c-3.4-0.4-7-0.6-10.5-0.6l-1.1,0c-0.1,0-0.2,0-0.3,0c-3.2,0.1-6.4,0.3-9.7,0.7c-12.4,1.5-21.1,4.7-22,5.1
		c-0.8,0.3-1.3,1.6-0.9,2.8c0.3,0.8,0.9,1.4,1.5,1.3c0.1,0,0.2,0,0.3-0.1c0.1,0,9.1-3.5,21.8-5c3.5-0.4,7.1-0.6,10.5-0.6
		c0.6,0,1.2,0,1.8,0l0.2,0c0.5,0,1.1,0,1.6,0l0.2,0c0.6,0,1.2,0.1,1.9,0.1l0.2,0c0.5,0,1.1,0.1,1.6,0.1l0.3,0
		c0.6,0.1,1.3,0.1,1.9,0.2c0,0,0.1,0,0.1,0c0.6,0.1,1.2,0.1,1.8,0.2l0.4,0.1c0.6,0.1,1.2,0.2,1.9,0.3c0.6,0.1,1.3,0.2,1.9,0.4
		l0.5,0.1c0.5,0.1,1.1,0.2,1.6,0.4l0.3,0.1c0.7,0.2,1.3,0.3,1.9,0.5l0.5,0.1c0.5,0.1,1,0.3,1.5,0.4l0.4,0.1c0.7,0.2,1.3,0.4,1.9,0.6
		l0.5,0.2c0.5,0.2,1,0.4,1.5,0.5l0.5,0.2c0.7,0.3,1.3,0.5,1.9,0.8c0,0,0,0,0.1,0l0.3,0.1c0.5,0.2,1,0.4,1.5,0.7
		c0.2,0.1,0.4,0.2,0.6,0.3C126.2,132.7,126.8,132.9,127.3,133.2z"/>
	<path fill="#CFF09E" d="M144.1,80.6c-1.6,0.1-3.2-0.2-4.7-1l-0.5-0.3c-0.4-0.2-0.8-0.4-1.1-0.6c-0.2-0.1-0.4-0.2-0.7-0.3l-0.1-0.1
		c-0.3-0.2-0.6-0.3-0.9-0.5c-0.3-0.1-0.5-0.2-0.8-0.4c-0.3-0.2-0.7-0.3-1-0.5c-0.3-0.1-0.6-0.3-0.9-0.4c-0.5-0.2-0.9-0.4-1.4-0.6
		c-0.2-0.1-0.8-0.3-0.8-0.3c-0.3-0.1-0.6-0.2-0.9-0.4c-0.3-0.1-0.5-0.2-0.8-0.3c-0.3-0.1-0.7-0.2-1-0.4c0,0-0.6-0.2-0.7-0.3
		c-0.5-0.2-1-0.4-1.6-0.5c-0.2-0.1-0.4-0.1-0.6-0.2l-0.2,0c-0.3-0.1-0.6-0.2-0.9-0.3c-0.3-0.1-0.6-0.2-0.9-0.3
		c-0.3-0.1-0.6-0.2-0.9-0.3c0,0-0.6-0.2-0.8-0.2c-0.5-0.1-1-0.3-1.5-0.4c-0.2,0-0.9-0.2-0.9-0.2c-0.3-0.1-0.6-0.1-0.9-0.2
		c-0.3-0.1-0.6-0.1-0.9-0.2c-0.3-0.1-0.9-0.2-0.9-0.2c-0.3-0.1-0.6-0.1-0.9-0.2c-0.2,0-0.8-0.2-0.8-0.2c-0.6-0.1-1.1-0.2-1.6-0.3
		l-0.7-0.1c-0.3-0.1-0.7-0.1-1-0.2l-0.7-0.1c-0.3-0.1-0.7-0.1-1-0.1l-0.5-0.1c-0.7-0.1-1.5-0.2-2.2-0.3l-0.4,0
		c-0.4,0-0.8-0.1-1.1-0.1l-0.5,0c-0.4,0-0.8-0.1-1.2-0.1l-0.3,0c-1.3-0.1-2.6-0.2-4-0.2l-0.2,0c-0.4,0-0.9,0-1.3,0
		c-1.8-0.1-3.7-0.1-5.6,0c-2.7,0-5.6,0.2-8.4,0.4c-19.8,1.6-34.3,7.2-34.5,7.3c-0.8,0.3-1.6,0.5-2.4,0.6c-4,0.3-7.9-2.3-9.3-6.5
		c-1.8-5.1,0.6-10.8,5.3-12.6c0.6-0.2,14.2-5.5,33.7-7.8c1.8-0.2,3.7-0.4,5.5-0.6c9.5-0.8,18.8-0.6,27.6,0.4
		c13.3,1.6,25.7,5.4,36.7,11.2c3,1.6,5,4.8,5.2,8.5c0.1,1.3-0.1,2.6-0.5,3.8c-0.1,0.3-0.2,0.6-0.4,0.9
		C150.2,78.2,147.3,80.3,144.1,80.6z"/>
	<path fill="#27AE60" d="M144.6,85.8c-2.6,0.2-5.2-0.3-7.5-1.5l-0.4-0.2c-0.4-0.2-0.7-0.4-1.1-0.5c-0.2-0.1-0.4-0.2-0.6-0.3
		l-0.2-0.1c-0.3-0.1-0.6-0.3-0.9-0.4c-0.2-0.1-0.5-0.2-0.7-0.3c-0.3-0.1-0.6-0.3-1-0.4c-0.3-0.1-0.5-0.2-0.8-0.4
		c-0.4-0.2-0.8-0.4-1.3-0.5c-0.2-0.1-0.7-0.3-0.7-0.3c-0.3-0.1-0.6-0.2-0.9-0.3c-0.3-0.1-0.5-0.2-0.8-0.3c-0.3-0.1-0.6-0.2-0.9-0.3
		c0,0-0.5-0.2-0.7-0.2c-0.5-0.2-1-0.3-1.5-0.5c-0.2-0.1-0.4-0.1-0.6-0.2l-0.2,0c-0.3-0.1-0.6-0.2-0.9-0.3c-0.3-0.1-0.5-0.2-0.8-0.2
		c-0.3-0.1-0.6-0.2-0.8-0.2c0,0-0.6-0.2-0.8-0.2c-0.5-0.1-1-0.3-1.5-0.4c-0.2,0-0.8-0.2-0.8-0.2c-0.3-0.1-0.5-0.1-0.8-0.2
		c-0.3-0.1-0.6-0.1-0.9-0.2c-0.3-0.1-0.8-0.2-0.8-0.2c-0.3-0.1-0.5-0.1-0.8-0.2c-0.2,0-0.8-0.1-0.8-0.1c-0.5-0.1-1-0.2-1.6-0.3
		L112,76c-0.3,0-0.6-0.1-0.9-0.1l-0.7-0.1c-0.3,0-0.6-0.1-1-0.1l-0.5-0.1c-0.7-0.1-1.4-0.2-2.1-0.3l-0.4,0c-0.3,0-0.7-0.1-1.1-0.1
		l-0.5,0c-0.4,0-0.7-0.1-1.1-0.1l-0.3,0c-1.3-0.1-2.5-0.2-3.8-0.2l-0.2,0c-0.4,0-0.8,0-1.3,0c-1.8-0.1-3.6-0.1-5.3,0
		c-2.6,0-5.3,0.2-8.1,0.4c-18.9,1.6-32.9,6.9-33,7c-1.2,0.5-2.5,0.8-3.8,0.9c-6.4,0.5-12.4-3.6-14.6-10c-2.6-7.7,1.1-16.3,8.3-19.1
		c0.6-0.2,14.8-5.8,35-8.2c11.8-1.4,23.4-1.4,34.3-0.1c13.9,1.7,26.9,5.7,38.5,11.8c4.6,2.4,7.7,7.3,8,12.8c0.1,1.9-0.1,3.9-0.7,5.7
		c-0.2,0.5-0.3,0.9-0.5,1.4C154.2,82,149.7,85.3,144.6,85.8z M133.2,71.1c0,0,0.6,0.2,0.8,0.3c0.5,0.2,1,0.4,1.4,0.6
		c0.3,0.1,0.6,0.3,0.9,0.4c0.4,0.2,0.7,0.3,1.1,0.5c0.3,0.1,0.6,0.3,0.8,0.4c0.3,0.2,0.7,0.3,1,0.5l0.2,0.1c0.2,0.1,0.4,0.2,0.7,0.3
		c0.4,0.2,0.8,0.4,1.2,0.6l0.5,0.2c0.6,0.3,1.3,0.5,1.9,0.4c1.3-0.1,2.5-1,3.1-2.4c0.1-0.1,0.1-0.3,0.2-0.5c0.2-0.6,0.3-1.3,0.3-2
		c-0.1-1.8-1.1-3.4-2.4-4.2c-10.5-5.5-22.2-9.1-34.9-10.7c-10.1-1.2-20.8-1.2-31.8,0.1c-18.8,2.2-31.8,7.3-32.4,7.5
		c-2.1,0.8-3.2,3.6-2.3,6.2c0.7,1.9,2.3,3.2,4,3c0.3,0,0.6-0.1,0.9-0.2c0.6-0.2,15.4-5.9,35.9-7.6c2.9-0.2,5.9-0.4,8.7-0.4
		c1.9,0,3.9,0,5.8,0c0.5,0,0.9,0,1.4,0l0.2,0c1.4,0.1,2.8,0.1,4.1,0.2l0.3,0c0.4,0,0.8,0.1,1.2,0.1l0.5,0c0.4,0,0.8,0.1,1.2,0.1
		l0.4,0c0.8,0.1,1.5,0.2,2.3,0.3l0.5,0.1c0.4,0.1,0.8,0.1,1.1,0.2l0.7,0.1c0.4,0.1,0.7,0.1,1.1,0.2l0.7,0.1c0.6,0.1,1.2,0.2,1.7,0.3
		l0,0c0,0,0.6,0.1,0.9,0.2c0.3,0.1,0.6,0.1,0.9,0.2c0,0,0.6,0.1,0.9,0.2c0.3,0.1,0.6,0.1,1,0.2c0.3,0.1,0.6,0.1,0.9,0.2
		c0,0,0.7,0.2,0.9,0.2c0.5,0.1,1.1,0.3,1.6,0.4c0.2,0.1,0.9,0.2,0.9,0.2c0.3,0.1,0.6,0.2,1,0.3c0.3,0.1,0.6,0.2,0.9,0.3
		c0.3,0.1,0.7,0.2,1,0.3l0.1,0c0.2,0.1,0.5,0.1,0.7,0.2c0.6,0.2,1.1,0.4,1.7,0.6c0.2,0.1,0.8,0.3,0.8,0.3c0.3,0.1,0.7,0.2,1,0.4
		c0.3,0.1,0.6,0.2,0.9,0.3C132.6,70.8,132.9,71,133.2,71.1L133.2,71.1z"/>
	<path fill="#CFF09E" d="M134.8,110.7c0,0-0.1,0-0.1,0c-0.1,0-0.1,0-0.2,0l-0.1,0c-0.1,0-0.1,0-0.2,0l-0.1,0c-1-0.1-2-0.3-2.9-0.8
		c-0.7-0.3-1.4-0.7-2.2-1.1l-0.4-0.2c-1.4-0.7-2.9-1.3-4.4-1.9l-0.5-0.2c-1.4-0.5-2.9-1-4.4-1.5l-0.5-0.1c-0.7-0.2-1.4-0.4-2.1-0.6
		l-0.1,0c-0.7-0.2-1.5-0.4-2.2-0.5l-0.5-0.1c-0.7-0.2-1.4-0.3-2.1-0.4l-0.1,0c-0.8-0.1-1.5-0.3-2.2-0.4l-0.5-0.1
		c-0.7-0.1-1.4-0.2-2.1-0.3l0,0c-0.8-0.1-1.5-0.2-2.2-0.3l-0.4,0c-0.7-0.1-1.4-0.1-2.1-0.2c-0.7-0.1-1.5-0.1-2.2-0.1l-0.3,0
		c-1.4-0.1-2.8-0.1-4.2-0.1l-0.1,0c-0.7,0-1.4,0-2.1,0l-0.5,0c-2.2,0-4.4,0.2-6.7,0.3c-1.2,0.1-2.4,0.2-3.5,0.4
		c-13.9,1.6-23.9,5.4-24.3,5.6c-0.6,0.2-1.3,0.4-2,0.5c-3.4,0.3-6.7-2-7.9-5.5c-1.5-4.3,0.5-9.1,4.5-10.7c0.5-0.2,11.6-4.5,27.5-6.4
		c1.5-0.2,3-0.3,4.5-0.5c7.8-0.6,15.3-0.5,22.5,0.4c10.9,1.3,21,4.4,30,9.2c0.7,0.4,1.3,0.8,1.9,1.4c2.3,2.3,3.1,5.8,2.1,8.9
		c-0.1,0.3-0.2,0.5-0.3,0.8c-1.2,2.7-3.5,4.4-6.3,4.7l0,0C135.1,110.7,135,110.7,134.8,110.7"/>
	<path fill="#27AE60" d="M135.6,115.8c-0.2,0-0.4,0-0.5,0c-0.1,0-0.2,0-0.3,0c-0.1,0-0.3,0-0.4,0l-0.1,0c-0.1,0-0.3,0-0.4,0
		c0,0-0.1,0-0.1,0l-0.1,0c-1.7-0.1-3.3-0.6-4.9-1.4c-0.6-0.3-1.2-0.6-2-1l-0.4-0.2c-1.3-0.6-2.6-1.2-4-1.7l-0.4-0.2
		c-1.3-0.5-2.7-1-4-1.4l-0.5-0.1c-0.6-0.2-1.3-0.4-1.9-0.5l-0.1,0c-0.7-0.2-1.4-0.3-2-0.5l-0.5-0.1c-0.6-0.1-1.3-0.3-1.9-0.4
		c0,0,0,0-0.1,0l0,0c-0.7-0.1-1.4-0.3-2-0.4l-0.5-0.1c-0.6-0.1-1.3-0.2-1.9-0.3c0,0-0.1,0-0.1,0c-0.7-0.1-1.4-0.2-2-0.2l-0.4,0
		c-0.7-0.1-1.3-0.1-2-0.2c-0.7-0.1-1.4-0.1-2.1-0.1l-0.3,0c-1.3-0.1-2.7-0.1-4-0.1l-0.1,0c-0.7,0-1.3,0-2,0l-0.5,0
		c-3.2,0.1-6.5,0.3-9.7,0.7c-13.3,1.5-23,5.2-23.1,5.3c-1.1,0.4-2.2,0.7-3.4,0.8c-5.8,0.5-11.2-3.2-13.2-9c-2.4-6.9,1-14.6,7.5-17.1
		c0.5-0.2,12.2-4.8,28.8-6.7c9.8-1.2,19.3-1.2,28.2-0.1c11.5,1.4,22.2,4.7,31.8,9.7c1.2,0.6,2.2,1.4,3.2,2.4
		c3.6,3.7,4.9,9.2,3.3,14.2c-0.1,0.4-0.3,0.8-0.5,1.2C144.3,112.4,140.2,115.4,135.6,115.8z M134.6,105.5
		C134.7,105.5,134.7,105.5,134.6,105.5l0.1,0c0.8-0.1,1.5-0.7,1.9-1.6c0-0.1,0.1-0.2,0.1-0.3c0.4-1.3,0.1-2.8-0.8-3.7
		c-0.2-0.2-0.4-0.4-0.7-0.5c-8.5-4.5-17.9-7.4-28.2-8.6c-8.1-1-16.8-1-25.8,0.1c-15.2,1.8-25.8,5.9-26.2,6.1
		c-1.4,0.5-2.1,2.5-1.5,4.2c0.5,1.5,1.9,2.4,3.1,1.9c0.5-0.2,11.1-4.2,25.6-5.9c3.6-0.4,7.2-0.7,10.7-0.7l0.5,0c0.7,0,1.5,0,2.2,0
		l0.1,0c1.5,0,3,0.1,4.5,0.1l0.3,0c0.8,0,1.5,0.1,2.3,0.2c0.7,0.1,1.5,0.1,2.2,0.2l0.4,0c0.8,0.1,1.5,0.2,2.3,0.3c0,0,0.1,0,0.1,0
		c0.7,0.1,1.4,0.2,2.2,0.3l0.5,0.1c0.8,0.1,1.5,0.3,2.4,0.4c0,0,0,0,0.1,0l0,0c0.7,0.1,1.4,0.3,2.2,0.5l0.5,0.1
		c0.9,0.2,1.6,0.4,2.4,0.6c0,0,0,0,0.1,0l0.1,0c0.6,0.2,1.4,0.4,2.2,0.6l0.5,0.2c1.6,0.5,3.2,1,4.7,1.6l0.5,0.2
		c1.6,0.6,3.2,1.3,4.7,2l0.4,0.2c0.9,0.4,1.7,0.8,2.4,1.2c0.3,0.1,0.5,0.2,0.8,0.2c0,0,0,0,0,0L134.6,105.5
		C134.6,105.5,134.6,105.5,134.6,105.5z"/>
	<path fill="#27AE60" d="M215.7,91.3V35.5c0-2.2,0.8-4,2.3-5.5c1.5-1.5,3.3-2.3,5.5-2.3H248c9,0,15.8,2.4,20.6,7.2
		c4,4,6.1,9.4,6.1,16.2v0.2c0,10.4-4.7,17.6-14.1,21.5l10.8,13.1c1.7,2.2,2.5,4.1,2.5,6c0,2.1-0.7,3.8-2.2,5.1c-1.5,1.3-3.2,2-5.1,2
		c-3,0-5.6-1.3-7.7-4l-15.1-19.2h-12.4v15.4c0,2.2-0.8,4-2.3,5.5c-1.5,1.5-3.3,2.3-5.5,2.3c-2.2,0-4-0.8-5.5-2.3
		C216.5,95.3,215.7,93.4,215.7,91.3z M231.2,62.1H247c3.7,0,6.6-0.9,8.7-2.7c2.1-1.8,3.2-4.2,3.2-7.3v-0.2c0-3.3-1.1-5.8-3.2-7.5
		c-2.2-1.7-5.1-2.6-9-2.6h-15.4V62.1z"/>
	<path fill="#27AE60" d="M296.5,98.4c-2.2,0-4-0.8-5.5-2.3c-1.5-1.5-2.3-3.3-2.3-5.5V35.5c0-2.2,0.8-4,2.3-5.5
		c1.5-1.5,3.3-2.3,5.5-2.3h39.2c2,0,3.6,0.7,4.9,2c1.3,1.3,2,3,2,4.9c0,1.9-0.7,3.5-2,4.8c-1.3,1.3-3,2-4.9,2h-31.5v14.3h27
		c1.9,0,3.5,0.7,4.9,2.1c1.4,1.4,2.1,3,2.1,4.9c0,1.9-0.7,3.5-2,4.8c-1.3,1.3-3,2-4.9,2h-27v14.8h32c1.9,0,3.5,0.7,4.9,2.1
		c1.4,1.4,2.1,3,2.1,4.9c0,1.9-0.7,3.5-2,4.8c-1.3,1.3-3,2-4.9,2H296.5z"/>
	<path fill="#27AE60" d="M351.5,91.8c0-0.9,0.3-2,0.9-3.3L377,32.8c1.8-4.1,4.8-6.2,9.1-6.2h0.9c4.2,0,7.2,2.1,9,6.2l24.6,55.6
		c0.5,1.2,0.8,2.3,0.8,3.1c0,2.1-0.7,3.9-2.1,5.3c-1.4,1.4-3.2,2.2-5.2,2.2c-3.4,0-5.9-1.8-7.5-5.4l-4.7-11.1h-31.1l-4.9,11.6
		c-1.4,3.2-3.8,4.8-7.2,4.8c-2,0-3.7-0.7-5.1-2.1C352.2,95.5,351.5,93.8,351.5,91.8z M376.5,68.9h19.6l-9.8-23.3L376.5,68.9z"/>
	<path fill="#27AE60" d="M433.7,90.7V34.9c0-2.2,0.8-4,2.3-5.5c1.5-1.5,3.3-2.3,5.5-2.3c2.2,0,4,0.8,5.5,2.3
		c1.5,1.5,2.3,3.3,2.3,5.5v49.4H478c2,0,3.6,0.7,5,2.1c1.4,1.4,2.1,3,2.1,5c0,2-0.7,3.6-2.1,5c-1.4,1.4-3,2.1-5,2.1h-36.5
		c-2.2,0-4-0.8-5.5-2.3C434.4,94.7,433.7,92.8,433.7,90.7z"/>
	<path fill="#27AE60" d="M502.5,91.3V42.1h-14.9c-2,0-3.6-0.7-5-2.1c-1.4-1.4-2.1-3.1-2.1-5c0-2,0.7-3.6,2.1-5
		c1.4-1.4,3.1-2.1,5-2.1H533c2,0,3.6,0.7,5,2.1c1.4,1.4,2.1,3.1,2.1,5c0,2-0.7,3.6-2.1,5c-1.4,1.4-3.1,2.1-5,2.1h-14.9v49.2
		c0,2.2-0.8,4-2.3,5.5c-1.5,1.5-3.3,2.3-5.5,2.3c-2.2,0-4-0.8-5.5-2.3C503.3,95.3,502.5,93.4,502.5,91.3z"/>
	<path fill="#27AE60" d="M552.2,91.3V34.9c0-2.2,0.8-4,2.3-5.5c1.5-1.5,3.3-2.3,5.5-2.3c2.2,0,4,0.8,5.5,2.3
		c1.5,1.5,2.3,3.3,2.3,5.5v56.3c0,2.2-0.8,4-2.3,5.5c-1.5,1.5-3.3,2.3-5.5,2.3c-2.2,0-4-0.8-5.5-2.3
		C552.9,95.3,552.2,93.4,552.2,91.3z"/>
	<path fill="#27AE60" d="M585.4,91.5V35.1c0-2.2,0.8-4,2.3-5.5c1.5-1.5,3.3-2.3,5.5-2.3h1.7c3.1,0,5.5,1.3,7.1,4L620.7,62l18.9-30.7
		c1.6-2.6,3.9-3.9,7-3.9h1.7c2.2,0,4,0.8,5.5,2.3c1.5,1.5,2.3,3.3,2.3,5.5v56.1c0,2.2-0.8,4-2.3,5.5c-1.5,1.5-3.3,2.3-5.5,2.3
		c-2.1,0-3.9-0.8-5.4-2.3c-1.5-1.5-2.3-3.3-2.3-5.5V56L627,77c-1.8,2.6-3.9,3.9-6.5,3.9c-2.6,0-4.7-1.3-6.5-3.9l-13.4-20.7v35.1
		c0,2.1-0.7,3.9-2.2,5.4c-1.5,1.5-3.3,2.2-5.5,2.2c-2.1,0-3.9-0.7-5.4-2.2C586.1,95.3,585.4,93.6,585.4,91.5z"/>
	<path fill="#27AE60" d="M680.8,98.4c-2.2,0-4-0.8-5.5-2.3c-1.5-1.5-2.3-3.3-2.3-5.5V35.5c0-2.2,0.8-4,2.3-5.5
		c1.5-1.5,3.3-2.3,5.5-2.3H720c2,0,3.6,0.7,4.9,2c1.3,1.3,2,3,2,4.9c0,1.9-0.7,3.5-2,4.8c-1.3,1.3-3,2-4.9,2h-31.5v14.3h27
		c1.9,0,3.5,0.7,4.9,2.1c1.4,1.4,2.1,3,2.1,4.9c0,1.9-0.7,3.5-2,4.8c-1.3,1.3-3,2-4.9,2h-27v14.8h32c1.9,0,3.5,0.7,4.9,2.1
		c1.4,1.4,2.1,3,2.1,4.9c0,1.9-0.7,3.5-2,4.8c-1.3,1.3-3,2-4.9,2H680.8z"/>
	<g>
		<path fill="#212121" d="M322.8,164.6c-5.9,0-10.8-2-14.7-6.1c-3.9-4.1-5.9-9.1-5.9-15.1v-0.1c0-5.9,2-11,5.9-15.1
			c3.9-4.2,8.9-6.3,14.8-6.3c3.2,0,6,0.5,8.3,1.5c2.4,1,4.7,2.4,6.9,4.3c0.4,0.4,0.6,0.8,0.6,1.2c0,0.4-0.2,0.8-0.5,1.1
			c-0.3,0.3-0.7,0.5-1.1,0.5c-0.4,0-0.8-0.1-1.1-0.4c-3.9-3.6-8.3-5.4-13.2-5.4c-5,0-9.1,1.8-12.4,5.4c-3.3,3.6-5,8-5,13.2v0.1
			c0,5.2,1.7,9.7,5.1,13.2c3.4,3.6,7.5,5.4,12.4,5.4c2.7,0,5.1-0.5,7.2-1.4c2.1-0.9,4.2-2.4,6.2-4.3c0.3-0.3,0.7-0.5,1.1-0.5
			c0.4,0,0.7,0.1,1,0.4c0.3,0.3,0.4,0.6,0.4,1c0,0.4-0.2,0.7-0.5,1.1c-2.3,2.1-4.7,3.7-7.1,4.8C328.9,164,326.1,164.6,322.8,164.6z"
			/>
		<path fill="#212121" d="M380.4,158.2c-3.9,4.2-8.9,6.3-15,6.3c-6.1,0-11.1-2.1-15-6.3c-3.9-4.2-5.8-9.2-5.8-15v-0.1
			c0-5.8,2-10.9,5.9-15.1c3.9-4.2,8.9-6.3,15-6.3c6.1,0,11.1,2.1,15,6.3c3.9,4.2,5.8,9.2,5.8,15v0.1
			C386.3,149,384.3,154,380.4,158.2z M352.9,156.4c3.4,3.6,7.6,5.4,12.6,5.4c5,0,9.2-1.8,12.6-5.4c3.3-3.6,5-8,5-13.1v-0.1
			c0-5.2-1.7-9.6-5.1-13.2c-3.4-3.6-7.6-5.4-12.6-5.4c-5,0-9.2,1.8-12.6,5.4c-3.3,3.6-5,8-5,13.1v0.1
			C347.9,148.3,349.5,152.7,352.9,156.4z"/>
		<path fill="#212121" d="M410.4,164.3c-0.8,0-1.4-0.5-1.8-1.4l-16.9-38.5c-0.1-0.2-0.1-0.4-0.1-0.7c0-0.4,0.1-0.7,0.4-1
			c0.3-0.3,0.7-0.5,1.1-0.5c0.7,0,1.2,0.4,1.6,1.2l15.8,37.1l15.8-37.1c0.4-0.8,0.9-1.2,1.5-1.2c0.4,0,0.7,0.1,1,0.4
			c0.3,0.3,0.4,0.6,0.4,1c0,0.2,0,0.4-0.1,0.6l-16.9,38.7c-0.4,0.9-1,1.4-1.8,1.4H410.4z"/>
		<path fill="#212121" d="M440.3,163.9c-0.4,0-0.7-0.2-1.1-0.5c-0.3-0.3-0.5-0.7-0.5-1.1V124c0-0.4,0.2-0.7,0.5-1.1
			c0.3-0.3,0.7-0.5,1.1-0.5H467c0.4,0,0.7,0.1,1,0.4c0.3,0.3,0.4,0.6,0.4,1c0,0.4-0.1,0.7-0.4,1c-0.3,0.3-0.6,0.4-1,0.4h-25.2v16.3
			h22.5c0.4,0,0.7,0.1,1,0.4c0.3,0.3,0.4,0.6,0.4,1c0,0.4-0.1,0.7-0.4,1c-0.3,0.3-0.6,0.4-1,0.4h-22.5V161h25.5c0.4,0,0.7,0.1,1,0.4
			c0.3,0.3,0.4,0.6,0.4,1c0,0.4-0.1,0.7-0.4,1c-0.3,0.3-0.6,0.4-1,0.4H440.3z"/>
		<path fill="#212121" d="M478.3,162.6V124c0-0.4,0.2-0.7,0.5-1.1c0.3-0.3,0.7-0.5,1.1-0.5h15.8c5,0,8.9,1.4,11.6,4.1
			c2.1,2.1,3.1,4.7,3.1,7.7v0.1c0,3.4-1.1,6-3.3,8c-2.2,2-5.1,3.3-8.8,3.8l11.8,15.3c0.3,0.4,0.5,0.7,0.5,1.1c0,0.4-0.2,0.8-0.5,1.1
			c-0.3,0.3-0.7,0.5-1.1,0.5c-0.5,0-1-0.3-1.4-0.8L495,146.7h-13.5v15.8c0,0.4-0.2,0.7-0.5,1.1c-0.3,0.3-0.7,0.5-1.1,0.5
			c-0.4,0-0.7-0.2-1.1-0.5C478.5,163.3,478.3,163,478.3,162.6z M481.4,143.9h14c3.5,0,6.4-0.8,8.7-2.5c2.2-1.7,3.4-4,3.4-6.9v-0.1
			c0-2.8-1-5-3.1-6.6c-2.1-1.6-5-2.4-8.8-2.4h-14.1V143.9z"/>
		<path fill="#212121" d="M518.2,162.8c0-0.3,0.1-0.6,0.2-0.9l17.7-38.3c0.5-1,1.2-1.5,2.1-1.5h0.1c0.9,0,1.6,0.5,2.1,1.5l17.6,38.2
			c0.2,0.3,0.2,0.6,0.2,0.9c0,0.4-0.1,0.7-0.4,1s-0.6,0.4-1,0.4c-0.7,0-1.2-0.4-1.5-1.2l-4.8-10.6H526l-4.8,10.7
			c-0.3,0.7-0.8,1.1-1.5,1.1c-0.4,0-0.7-0.1-1-0.4C518.4,163.5,518.2,163.1,518.2,162.8z M527.3,149.5h21.8l-10.9-23.9L527.3,149.5z
			"/>
		<path fill="#212121" d="M584.4,164.6c-6.3,0-11.4-2-15.2-6.1c-3.8-4.1-5.6-9.1-5.6-15.2v-0.1c0-5.8,1.9-10.8,5.7-15
			c3.8-4.2,8.7-6.4,14.7-6.4c5.4,0,10.1,1.5,14.1,4.6c0.4,0.3,0.6,0.7,0.6,1.2c0,0.4-0.2,0.8-0.5,1.1c-0.3,0.3-0.7,0.4-1.1,0.4
			c-0.3,0-0.6-0.1-0.9-0.4c-3.6-2.8-7.7-4.2-12.4-4.2c-4.9,0-9,1.8-12.2,5.4c-3.2,3.6-4.8,8-4.8,13.1v0.1c0,5.5,1.6,10,4.8,13.5
			s7.5,5.2,12.9,5.2c2.5,0,4.9-0.4,7.2-1.3c2.3-0.9,4.3-2,5.9-3.4v-11.9h-12.9c-0.4,0-0.7-0.1-1-0.4c-0.3-0.3-0.4-0.6-0.4-1
			c0-0.4,0.1-0.7,0.4-1c0.3-0.3,0.6-0.4,1-0.4h14.3c0.4,0,0.7,0.1,1.1,0.4c0.3,0.3,0.5,0.7,0.5,1.1v13.5c0,0.6-0.4,1.2-1.1,1.8
			C595,162.8,590,164.6,584.4,164.6z"/>
		<path fill="#212121" d="M613.3,163.9c-0.4,0-0.7-0.2-1.1-0.5c-0.3-0.3-0.5-0.7-0.5-1.1V124c0-0.4,0.2-0.7,0.5-1.1
			c0.3-0.3,0.7-0.5,1.1-0.5H640c0.4,0,0.7,0.1,1,0.4c0.3,0.3,0.4,0.6,0.4,1c0,0.4-0.1,0.7-0.4,1c-0.3,0.3-0.6,0.4-1,0.4h-25.2v16.3
			h22.5c0.4,0,0.7,0.1,1,0.4c0.3,0.3,0.4,0.6,0.4,1c0,0.4-0.1,0.7-0.4,1c-0.3,0.3-0.6,0.4-1,0.4h-22.5V161h25.5c0.4,0,0.7,0.1,1,0.4
			c0.3,0.3,0.4,0.6,0.4,1c0,0.4-0.1,0.7-0.4,1c-0.3,0.3-0.6,0.4-1,0.4H613.3z"/>
	</g>
</g>
</svg>
