<?xml version="1.0" encoding="utf-8"?>
<!-- Generator: Adobe Illustrator 17.1.0, SVG Export Plug-In . SVG Version: 6.00 Build 0)  -->
<!DOCTYPE svg PUBLIC "-//W3C//DTD SVG 1.1//EN" "http://www.w3.org/Graphics/SVG/1.1/DTD/svg11.dtd">
<svg version="1.1" id="Camada_1" xmlns="http://www.w3.org/2000/svg" xmlns:xlink="http://www.w3.org/1999/xlink" x="0px" y="0px"
	 width="732.2px" height="194.2px" viewBox="0 0 732.2 194.2" enable-background="new 0 0 732.2 194.2" xml:space="preserve">
<path fill="#FF8E01" d="M108.9,132.1c-0.6-0.1-1.2-0.1-1.8-0.2l-0.3,0c-0.5,0-1-0.1-1.6-0.1l-0.2,0c-0.6,0-1.2-0.1-1.7-0.1l-0.2,0
	c-0.5,0-1,0-1.5,0l-0.2,0c-0.6,0-1.1,0-1.7,0c-2.3,0-4.6,0.1-6.9,0.3c-1,0.1-2,0.2-3,0.3c-11.8,1.4-20.4,4.7-20.5,4.7
	c-0.6,0.2-1.2,0.4-1.7,0.4c-3,0.2-5.8-1.7-6.9-4.8c-1.3-3.8,0.5-8,3.9-9.3c1-0.4,10.2-3.9,23.3-5.4c1.3-0.1,2.5-0.3,3.8-0.4
	c2.2-0.2,4.3-0.3,6.5-0.3l0,0l1.4,0c3.8,0,7.6,0.2,11.2,0.6c9.2,1.1,17.8,3.7,25.4,7.8c3.1,1.6,4.6,5.5,3.5,9.1
	c-0.1,0.2-0.2,0.5-0.3,0.7c-1,2.3-3.1,3.9-5.5,4.1c-1.2,0.1-2.4-0.2-3.4-0.7l-0.1-0.1c-0.5-0.3-1-0.5-1.5-0.8
	c-0.2-0.1-0.4-0.2-0.5-0.3c-0.5-0.2-0.9-0.4-1.4-0.6l-0.3-0.1c-0.6-0.2-1.1-0.5-1.7-0.7l-0.5-0.2c-0.5-0.2-0.9-0.3-1.4-0.5l-0.4-0.1
	c-0.6-0.2-1.1-0.4-1.7-0.6l-0.4-0.1c-0.5-0.1-0.9-0.3-1.4-0.4l-0.4-0.1c-0.6-0.2-1.2-0.3-1.7-0.4l-0.3-0.1c-0.5-0.1-1-0.2-1.5-0.3
	l-0.4-0.1c-0.6-0.1-1.2-0.2-1.8-0.3c-0.6-0.1-1.2-0.2-1.8-0.3l-0.4-0.1C110.1,132.2,109.5,132.2,108.9,132.1"/>
<path fill="#FF8E01" d="M149.1,81.2c-1.6,0.1-3.2-0.2-4.7-1l-0.5-0.3c-0.4-0.2-0.8-0.4-1.1-0.6c-0.2-0.1-0.4-0.2-0.7-0.3l-0.1-0.1
	c-0.3-0.2-0.6-0.3-0.9-0.5c-0.3-0.1-0.5-0.2-0.8-0.4c-0.3-0.2-0.7-0.3-1-0.5c-0.3-0.1-0.6-0.3-0.9-0.4c-0.5-0.2-0.9-0.4-1.4-0.6
	c-0.2-0.1-0.8-0.3-0.8-0.3c-0.3-0.1-0.6-0.2-0.9-0.4c-0.3-0.1-0.5-0.2-0.8-0.3c-0.3-0.1-0.7-0.2-1-0.4c0,0-0.6-0.2-0.7-0.3
	c-0.5-0.2-1-0.4-1.6-0.5c-0.2-0.1-0.4-0.1-0.6-0.2l-0.2,0c-0.3-0.1-0.6-0.2-0.9-0.3c-0.3-0.1-0.6-0.2-0.9-0.3
	c-0.3-0.1-0.6-0.2-0.9-0.3c0,0-0.6-0.2-0.8-0.2c-0.5-0.1-1-0.3-1.5-0.4c-0.2,0-0.9-0.2-0.9-0.2c-0.3-0.1-0.6-0.1-0.9-0.2
	c-0.3-0.1-0.6-0.1-0.9-0.2c-0.3-0.1-0.9-0.2-0.9-0.2c-0.3-0.1-0.6-0.1-0.9-0.2c-0.2,0-0.8-0.2-0.8-0.2c-0.6-0.1-1.1-0.2-1.6-0.3
	l-0.7-0.1c-0.3-0.1-0.7-0.1-1-0.2l-0.7-0.1c-0.3-0.1-0.7-0.1-1-0.1l-0.5-0.1c-0.7-0.1-1.5-0.2-2.2-0.3l-0.4,0
	c-0.4,0-0.8-0.1-1.1-0.1l-0.5,0c-0.4,0-0.8-0.1-1.2-0.1l-0.3,0c-1.3-0.1-2.6-0.2-4-0.2l-0.2,0c-0.4,0-0.9,0-1.3,0
	c-1.8-0.1-3.7-0.1-5.6,0c-2.7,0-5.6,0.2-8.4,0.4c-19.8,1.6-34.3,7.2-34.5,7.3c-0.8,0.3-1.6,0.5-2.4,0.6c-4,0.3-7.9-2.3-9.3-6.5
	c-1.8-5.1,0.6-10.8,5.3-12.6c0.6-0.2,14.2-5.5,33.7-7.8c1.8-0.2,3.7-0.4,5.5-0.6c9.5-0.8,18.8-0.6,27.6,0.4
	c13.3,1.6,25.7,5.4,36.7,11.2c3,1.6,5,4.8,5.2,8.5c0.1,1.3-0.1,2.6-0.5,3.8c-0.1,0.3-0.2,0.6-0.4,0.9
	C155.1,78.8,152.3,81,149.1,81.2z"/>
<path fill="#FF8E01" d="M139.7,111.3c0,0-0.1,0-0.1,0c-0.1,0-0.1,0-0.2,0l-0.1,0c-0.1,0-0.1,0-0.2,0l-0.1,0c-1-0.1-2-0.3-2.9-0.8
	c-0.7-0.3-1.4-0.7-2.2-1.1l-0.4-0.2c-1.4-0.7-2.9-1.3-4.4-1.9l-0.5-0.2c-1.4-0.5-2.9-1-4.4-1.5l-0.5-0.1c-0.7-0.2-1.4-0.4-2.1-0.6
	l-0.1,0c-0.7-0.2-1.5-0.4-2.2-0.5l-0.5-0.1c-0.7-0.2-1.4-0.3-2.1-0.4l-0.1,0c-0.8-0.1-1.5-0.3-2.2-0.4l-0.5-0.1
	c-0.7-0.1-1.4-0.2-2.1-0.3l0,0c-0.8-0.1-1.5-0.2-2.2-0.3l-0.4,0c-0.7-0.1-1.4-0.1-2.1-0.2c-0.7-0.1-1.5-0.1-2.2-0.1l-0.3,0
	c-1.4-0.1-2.8-0.1-4.2-0.1l-0.1,0c-0.7,0-1.4,0-2.1,0l-0.5,0c-2.2,0-4.4,0.2-6.7,0.3c-1.2,0.1-2.4,0.2-3.5,0.4
	c-13.9,1.6-23.9,5.4-24.3,5.6c-0.6,0.2-1.3,0.4-2,0.5c-3.4,0.3-6.7-2-7.9-5.5c-1.5-4.3,0.5-9.1,4.5-10.7c0.5-0.2,11.6-4.5,27.5-6.4
	c1.5-0.2,3-0.3,4.5-0.5c7.8-0.6,15.3-0.5,22.5,0.4c10.9,1.3,21,4.4,30,9.2c0.7,0.4,1.3,0.8,1.9,1.4c2.3,2.3,3.1,5.8,2.1,8.9
	c-0.1,0.3-0.2,0.5-0.3,0.8c-1.2,2.7-3.5,4.4-6.3,4.7l0,0C140,111.3,139.9,111.3,139.7,111.3"/>
<g>
	<linearGradient id="SVGID_1_" gradientUnits="userSpaceOnUse" x1="208.4583" y1="62.226" x2="278.244" y2="102.5168">
		<stop  offset="0" style="stop-color:#FF8E01"/>
		<stop  offset="1" style="stop-color:#FF3B32"/>
	</linearGradient>
	<path fill="url(#SVGID_1_)" d="M215.5,107.9V52.2c0-2.2,0.8-4,2.3-5.5c1.5-1.5,3.3-2.3,5.5-2.3h24.5c9,0,15.8,2.4,20.6,7.2
		c4,4,6.1,9.4,6.1,16.2v0.2c0,10.4-4.7,17.6-14.1,21.5l10.8,13.1c1.7,2.2,2.5,4.1,2.5,6c0,2.1-0.7,3.8-2.2,5.1c-1.5,1.3-3.2,2-5.1,2
		c-3,0-5.6-1.3-7.7-4l-15.1-19.2H231v15.4c0,2.2-0.8,4-2.3,5.5c-1.5,1.5-3.3,2.3-5.5,2.3c-2.2,0-4-0.8-5.5-2.3
		C216.3,111.9,215.5,110,215.5,107.9z M231,78.7h15.7c3.7,0,6.6-0.9,8.7-2.7c2.1-1.8,3.2-4.2,3.2-7.3v-0.2c0-3.3-1.1-5.8-3.2-7.5
		c-2.2-1.7-5.1-2.6-9-2.6H231V78.7z"/>
	<linearGradient id="SVGID_2_" gradientUnits="userSpaceOnUse" x1="282.447" y1="60.4985" x2="349.2484" y2="99.0663">
		<stop  offset="0" style="stop-color:#FF8E01"/>
		<stop  offset="1" style="stop-color:#FF3B32"/>
	</linearGradient>
	<path fill="url(#SVGID_2_)" d="M296.3,115.1c-2.2,0-4-0.8-5.5-2.3c-1.5-1.5-2.3-3.3-2.3-5.5V52.2c0-2.2,0.8-4,2.3-5.5
		c1.5-1.5,3.3-2.3,5.5-2.3h39.2c2,0,3.6,0.7,4.9,2c1.3,1.3,2,3,2,4.9c0,1.9-0.7,3.5-2,4.8c-1.3,1.3-3,2-4.9,2h-31.5v14.3h27
		c1.9,0,3.5,0.7,4.9,2.1c1.4,1.4,2.1,3,2.1,4.9c0,1.9-0.7,3.5-2,4.8c-1.3,1.3-3,2-4.9,2h-27v14.8h32c1.9,0,3.5,0.7,4.9,2.1
		c1.4,1.4,2.1,3,2.1,4.9c0,1.9-0.7,3.5-2,4.8c-1.3,1.3-3,2-4.9,2H296.3z"/>
	<linearGradient id="SVGID_3_" gradientUnits="userSpaceOnUse" x1="362.7985" y1="73.5716" x2="422.5444" y2="108.066">
		<stop  offset="0" style="stop-color:#FF8E01"/>
		<stop  offset="1" style="stop-color:#FF3B32"/>
	</linearGradient>
	<path fill="url(#SVGID_3_)" d="M351.3,108.4c0-0.9,0.3-2,0.9-3.3l24.6-55.6c1.8-4.1,4.8-6.2,9.1-6.2h0.9c4.2,0,7.2,2.1,9,6.2
		l24.6,55.6c0.5,1.2,0.8,2.3,0.8,3.1c0,2.1-0.7,3.9-2.1,5.3c-1.4,1.4-3.2,2.2-5.2,2.2c-3.4,0-5.9-1.8-7.5-5.4l-4.7-11.1h-31.1
		l-4.9,11.6c-1.4,3.2-3.8,4.8-7.2,4.8c-2,0-3.7-0.7-5.1-2.1C352,112.1,351.3,110.4,351.3,108.4z M376.3,85.5h19.6l-9.8-23.3
		L376.3,85.5z"/>
	<linearGradient id="SVGID_4_" gradientUnits="userSpaceOnUse" x1="422.4166" y1="68.5601" x2="487.1528" y2="105.9356">
		<stop  offset="0" style="stop-color:#FF8E01"/>
		<stop  offset="1" style="stop-color:#FF3B32"/>
	</linearGradient>
	<path fill="url(#SVGID_4_)" d="M433.5,107.3V51.6c0-2.2,0.8-4,2.3-5.5c1.5-1.5,3.3-2.3,5.5-2.3c2.2,0,4,0.8,5.5,2.3
		c1.5,1.5,2.3,3.3,2.3,5.5v49.4h28.8c2,0,3.6,0.7,5,2.1c1.4,1.4,2.1,3,2.1,5c0,2-0.7,3.6-2.1,5c-1.4,1.4-3,2.1-5,2.1h-36.5
		c-2.2,0-4-0.8-5.5-2.3C434.2,111.3,433.5,109.4,433.5,107.3z"/>
	<linearGradient id="SVGID_5_" gradientUnits="userSpaceOnUse" x1="488.457" y1="86.0257" x2="542.8451" y2="54.6248">
		<stop  offset="0" style="stop-color:#FF8E01"/>
		<stop  offset="1" style="stop-color:#FF3B32"/>
	</linearGradient>
	<path fill="url(#SVGID_5_)" d="M502.3,107.9V58.7h-14.9c-2,0-3.6-0.7-5-2.1c-1.4-1.4-2.1-3.1-2.1-5c0-2,0.7-3.6,2.1-5
		c1.4-1.4,3.1-2.1,5-2.1h45.4c2,0,3.6,0.7,5,2.1c1.4,1.4,2.1,3.1,2.1,5c0,2-0.7,3.6-2.1,5c-1.4,1.4-3.1,2.1-5,2.1h-14.9v49.2
		c0,2.2-0.8,4-2.3,5.5c-1.5,1.5-3.3,2.3-5.5,2.3c-2.2,0-4-0.8-5.5-2.3C503.1,111.9,502.3,110,502.3,107.9z"/>
	<linearGradient id="SVGID_6_" gradientUnits="userSpaceOnUse" x1="540.8083" y1="90.6692" x2="578.7094" y2="68.787">
		<stop  offset="0" style="stop-color:#FF8E01"/>
		<stop  offset="1" style="stop-color:#FF3B32"/>
	</linearGradient>
	<path fill="url(#SVGID_6_)" d="M552,107.9V51.6c0-2.2,0.8-4,2.3-5.5c1.5-1.5,3.3-2.3,5.5-2.3c2.2,0,4,0.8,5.5,2.3
		c1.5,1.5,2.3,3.3,2.3,5.5v56.3c0,2.2-0.8,4-2.3,5.5c-1.5,1.5-3.3,2.3-5.5,2.3c-2.2,0-4-0.8-5.5-2.3C552.7,111.9,552,110,552,107.9z
		"/>
	<linearGradient id="SVGID_7_" gradientUnits="userSpaceOnUse" x1="580.9009" y1="102.7117" x2="660.1125" y2="56.9788">
		<stop  offset="0" style="stop-color:#FF8E01"/>
		<stop  offset="1" style="stop-color:#FF3B32"/>
	</linearGradient>
	<path fill="url(#SVGID_7_)" d="M585.2,108.1V51.8c0-2.2,0.8-4,2.3-5.5c1.5-1.5,3.3-2.3,5.5-2.3h1.7c3.1,0,5.5,1.3,7.1,4l18.8,30.6
		l18.9-30.7c1.6-2.6,3.9-3.9,7-3.9h1.7c2.2,0,4,0.8,5.5,2.3c1.5,1.5,2.3,3.3,2.3,5.5v56.1c0,2.2-0.8,4-2.3,5.5
		c-1.5,1.5-3.3,2.3-5.5,2.3c-2.1,0-3.9-0.8-5.4-2.3c-1.5-1.5-2.3-3.3-2.3-5.5V72.7l-13.6,21c-1.8,2.6-3.9,3.9-6.5,3.9
		c-2.6,0-4.7-1.3-6.5-3.9L600.4,73v35.1c0,2.1-0.7,3.9-2.2,5.4c-1.5,1.5-3.3,2.2-5.5,2.2c-2.1,0-3.9-0.7-5.4-2.2
		C585.9,112,585.2,110.2,585.2,108.1z"/>
	<linearGradient id="SVGID_8_" gradientUnits="userSpaceOnUse" x1="666.852" y1="99.0674" x2="733.2693" y2="60.7213">
		<stop  offset="0" style="stop-color:#FF8E01"/>
		<stop  offset="1" style="stop-color:#FF3B32"/>
	</linearGradient>
	<path fill="url(#SVGID_8_)" d="M680.6,115.1c-2.2,0-4-0.8-5.5-2.3c-1.5-1.5-2.3-3.3-2.3-5.5V52.2c0-2.2,0.8-4,2.3-5.5
		c1.5-1.5,3.3-2.3,5.5-2.3h39.2c2,0,3.6,0.7,4.9,2c1.3,1.3,2,3,2,4.9c0,1.9-0.7,3.5-2,4.8c-1.3,1.3-3,2-4.9,2h-31.5v14.3h27
		c1.9,0,3.5,0.7,4.9,2.1c1.4,1.4,2.1,3,2.1,4.9c0,1.9-0.7,3.5-2,4.8c-1.3,1.3-3,2-4.9,2h-27v14.8h32c1.9,0,3.5,0.7,4.9,2.1
		c1.4,1.4,2.1,3,2.1,4.9c0,1.9-0.7,3.5-2,4.8c-1.3,1.3-3,2-4.9,2H680.6z"/>
</g>
<g>
	<linearGradient id="SVGID_9_" gradientUnits="userSpaceOnUse" x1="7.0016" y1="95.7257" x2="193.2056" y2="95.7257">
		<stop  offset="0" style="stop-color:#FF8E01"/>
		<stop  offset="1" style="stop-color:#FF3B32"/>
	</linearGradient>
	<path fill="url(#SVGID_9_)" d="M100.1,188.8C48.8,188.8,7,147.1,7,95.7S48.8,2.6,100.1,2.6c15.5,0,30.8,3.9,44.4,11.2
		c2.5,1.4,3.4,4.5,2.1,7c-1.4,2.5-4.5,3.4-7,2.1c-12-6.5-25.7-10-39.4-10c-45.6,0-82.8,37.1-82.8,82.8s37.1,82.8,82.8,82.8
		s82.8-37.1,82.8-82.8c0-17.5-5.4-34.2-15.6-48.3c-1.7-2.3-1.1-5.5,1.2-7.2c2.3-1.7,5.5-1.1,7.2,1.2c11.5,15.9,17.5,34.7,17.5,54.4
		C193.2,147.1,151.4,188.8,100.1,188.8z"/>
	<circle fill="#FF3B32" cx="157.1" cy="30.8" r="10"/>
</g>
<g>
	<path fill="#282828" d="M278.5,139.7h2.7l15.3,24h0.1v-24h2.7v28.6h-2.7l-15.4-24h-0.1v24h-2.7V139.7z"/>
	<path fill="#282828" d="M312.9,139.7h16.7v2.5h-14v10.3h13.2v2.4h-13.2v11h14v2.4h-16.7V139.7z"/>
	<path fill="#282828" d="M341.8,139.7l5.9,24.4h0.1l6.4-24.4h2.9l6.4,24.4h0.1l5.9-24.4h3.1l-7.8,28.6h-2.5l-6.6-24.2h-0.2
		l-6.6,24.2h-2.5l-7.8-28.6H341.8z"/>
	<path fill="#282828" d="M383.5,160.8c0.1,0.7,0.2,1.4,0.6,2.1c0.3,0.7,0.8,1.3,1.4,1.8c0.6,0.5,1.4,1,2.3,1.3
		c1,0.3,2.1,0.5,3.3,0.5c2.2,0,3.9-0.5,5.3-1.5c1.3-1,2-2.4,2-4.1c0-1.4-0.4-2.5-1.3-3.3c-0.9-0.8-2.3-1.5-4.2-2l-4.6-1.2
		c-0.9-0.3-1.8-0.6-2.5-1c-0.8-0.4-1.4-0.9-2.1-1.5s-1.1-1.3-1.4-2.1c-0.3-0.8-0.5-1.8-0.5-2.8c0-1.6,0.4-3.1,1.3-4.3
		c0.9-1.2,2-2.2,3.4-2.8c1.4-0.6,3-0.9,4.8-0.9c2.6,0,4.9,0.7,6.7,2.1c1.8,1.4,2.7,3.3,2.8,5.7H398c-0.1-1.5-0.7-2.8-1.9-3.8
		c-1.2-1-2.8-1.5-4.9-1.5c-2,0-3.7,0.5-4.9,1.4c-1.2,1-1.8,2.3-1.8,3.9c0,2.5,1.6,4.1,4.7,4.9l4.4,1.2c1.2,0.3,2.3,0.7,3.2,1.1
		c0.9,0.4,1.7,0.9,2.3,1.5c0.7,0.6,1.2,1.3,1.5,2.2s0.5,1.8,0.5,2.9c0,2.6-1,4.6-2.9,6.1s-4.4,2.2-7.4,2.2c-1.4,0-2.7-0.2-3.8-0.5
		s-2.1-0.8-2.8-1.3c-0.7-0.5-1.4-1.2-1.9-1.9c-0.5-0.7-0.9-1.5-1.1-2.2s-0.3-1.5-0.4-2.2H383.5z"/>
	<path fill="#282828" d="M426.9,151.7c0-3.9,1-7,2.9-9.2c1.9-2.3,4.6-3.4,8-3.4c1.6,0,3.1,0.3,4.5,0.8s2.4,1.3,3.2,2.2
		c0.8,0.9,1.4,1.9,1.9,3s0.6,2.2,0.6,3.3v0h-2.6c0-0.8-0.2-1.6-0.5-2.4c-0.3-0.8-0.8-1.5-1.4-2.2c-0.6-0.7-1.4-1.2-2.4-1.6
		c-1-0.4-2.1-0.6-3.2-0.6c-2.6,0-4.6,0.9-6.1,2.7s-2.2,4.3-2.2,7.5v4.7c0,3.2,0.7,5.7,2.2,7.4c1.5,1.8,3.5,2.6,6.2,2.6
		c2.3,0,4.2-0.6,5.5-1.9c1.3-1.2,2-2.8,2-4.6h2.6v0c0,1-0.2,2.1-0.6,3.1c-0.4,1-1.1,2-1.9,2.8s-1.9,1.6-3.2,2.1s-2.9,0.8-4.5,0.8
		c-3.5,0-6.2-1.1-8.1-3.3c-1.9-2.2-2.9-5.3-2.9-9.2V151.7z"/>
	<path fill="#282828" d="M459.1,151.8c0-3.9,1-7,3-9.3c2-2.3,4.7-3.4,8.1-3.4c3.4,0,6.2,1.1,8.1,3.4c2,2.3,3,5.4,3,9.3v4.6
		c0,3.9-1,7-3,9.2c-2,2.2-4.7,3.3-8.2,3.3c-3.4,0-6.1-1.1-8.1-3.3s-3-5.3-3-9.2V151.8z M464.1,163.8c1.5,1.7,3.6,2.6,6.2,2.6
		c2.6,0,4.6-0.9,6.2-2.6c1.5-1.7,2.3-4.2,2.3-7.4v-4.7c0-3.2-0.8-5.7-2.3-7.5s-3.6-2.7-6.2-2.7s-4.6,0.9-6.1,2.7
		c-1.6,1.8-2.3,4.3-2.3,7.5v4.7C461.8,159.6,462.5,162.1,464.1,163.8z"/>
	<path fill="#282828" d="M493.2,139.7l8.7,25.3h0.2l8.7-25.3h3l-10.5,28.6h-2.7l-10.4-28.6H493.2z"/>
	<path fill="#282828" d="M524.2,139.7h16.7v2.5h-14v10.3h13.2v2.4h-13.2v11h14v2.4h-16.7V139.7z"/>
	<path fill="#282828" d="M553.1,139.7h9.9c2.8,0,5,0.8,6.6,2.3c1.5,1.6,2.3,3.5,2.3,5.9c0,1.1-0.2,2.1-0.5,3
		c-0.3,0.9-0.7,1.7-1.3,2.3s-1.1,1.1-1.8,1.6c-0.6,0.4-1.3,0.7-2.1,1l6.1,12.4h-3.1l-5.7-11.9h-7.7v11.9h-2.7V139.7z M562.5,154
		c2.1,0,3.7-0.5,4.9-1.5c1.1-1,1.7-2.5,1.7-4.3c0-1.9-0.6-3.4-1.7-4.4s-2.7-1.6-4.7-1.6h-6.8V154H562.5z"/>
	<path fill="#282828" d="M591.7,139.7h2.7l10.3,28.6h-2.9l-3.1-9.1h-11.3l-3.1,9.1h-2.7L591.7,139.7z M597.8,156.9L593,143h-0.1
		l-4.8,13.9H597.8z"/>
	<path fill="#282828" d="M613.7,151.7c0-3.9,1-7,3-9.3c2-2.3,4.7-3.4,8.1-3.4c1.5,0,2.9,0.2,4.2,0.7c1.3,0.5,2.3,1.2,3.2,2
		c0.8,0.8,1.5,1.8,2,2.8c0.5,1.1,0.7,2.2,0.8,3.3h-2.6c-0.2-1.9-1-3.5-2.4-4.7c-1.4-1.2-3.2-1.8-5.2-1.8c-2.5,0-4.5,0.9-6.1,2.6
		s-2.3,4.3-2.3,7.6v4.3c0,3.2,0.7,5.8,2.1,7.6s3.5,2.8,6.2,2.8c2.3,0,4.2-0.6,5.7-1.9c1.4-1.2,2.2-2.9,2.2-5v-3.3h-8v-2.5h10.6v5.8
		c0,0.9-0.1,1.8-0.4,2.6c-0.2,0.9-0.6,1.7-1.2,2.5c-0.5,0.8-1.2,1.5-2,2.1c-0.8,0.6-1.8,1.1-2.9,1.5c-1.2,0.4-2.5,0.6-3.9,0.6
		c-3.6,0-6.4-1.2-8.2-3.5c-1.9-2.3-2.8-5.4-2.8-9.4V151.7z"/>
	<path fill="#282828" d="M647.6,139.7h16.7v2.5h-14v10.3h13.2v2.4h-13.2v11h14v2.4h-16.7V139.7z"/>
</g>
</svg>
