<svg id="Group_74" data-name="Group 74" xmlns="http://www.w3.org/2000/svg" xmlns:xlink="http://www.w3.org/1999/xlink" viewBox="0 0 1024 1024">
  <defs>
    <style>
      .cls-1 {
        fill: #fff;
      }

      .cls-2 {
        fill: #ff8e01;
      }

      .cls-3 {
        fill: url(#linear-gradient);
      }

      .cls-4 {
        fill: #ff3b32;
      }
    </style>
    <linearGradient id="linear-gradient" y1="0.5" x2="0.999" y2="0.5" gradientUnits="objectBoundingBox">
      <stop offset="0" stop-color="#ff8e01"/>
      <stop offset="1" stop-color="#ff3b32"/>
    </linearGradient>
  </defs>
  <rect id="Rectangle_1" data-name="Rectangle 1" class="cls-1" width="1024" height="1024" rx="176"/>
  <g id="Group_73" data-name="Group 73" transform="translate(1.244 1.02)">
    <g id="Group_1" data-name="Group 1" transform="translate(618.756 33.98)">
      <g id="Group_72" data-name="Group 72" transform="translate(-575 10)">
        <path id="Path_99" data-name="Path 99" class="cls-2" d="M304.009,191.888c-3.007-.5-6.015-.5-9.023-1h-1.5c-2.506,0-5.012-.5-8.02-.5h-1c-3.008,0-6.015-.5-8.521-.5H257.893q-17.294,0-34.587,1.5l-15.038,1.5A489.714,489.714,0,0,0,105.509,216.45c-3.008,1-6.015,2.005-8.522,2.005-15.038,1-29.073-8.521-34.587-24.061-6.516-19.048,2.506-40.1,19.549-46.617,5.013-2.005,51.129-19.549,116.794-27.068,6.516-.5,12.531-1.5,19.048-2,11.028-1,21.554-1.5,32.582-1.5h7.018a512.826,512.826,0,0,1,56.141,3.007c46.116,5.514,89.225,18.547,127.321,39.1,15.539,8.02,23.058,27.569,17.544,45.615-.5,1-1,2.506-1.5,3.509-5.013,11.529-15.539,19.549-27.569,20.552a32.644,32.644,0,0,1-17.043-3.509l-.5-.5c-2.506-1.5-5.013-2.506-7.519-4.01a10.96,10.96,0,0,1-2.506-1.5c-2.506-1-4.511-2.005-7.018-3.008l-1.5-.5c-3.008-1-5.514-2.506-8.521-3.509l-2.506-1c-2.506-1-4.511-1.5-7.018-2.506l-2-.5c-3.008-1-5.514-2.005-8.522-3.008l-2-.5c-2.507-.5-4.512-1.5-7.018-2.005l-2.005-.5a68.337,68.337,0,0,0-8.521-2.005l-1.5-.5-7.519-1.5-2-.5-9.023-1.5-9.023-1.5-2.005-.5c-4.01-2-7.017-2-10.025-2.506" transform="translate(206.777 457.246)"/>
        <path id="Path_100" data-name="Path 100" class="cls-2" d="M576.439,205.967a43.653,43.653,0,0,1-23.559-5.013l-2.507-1.5a54.705,54.705,0,0,1-5.514-3.008,24.414,24.414,0,0,0-3.509-1.5l-.5-.5c-1.5-1-3.008-1.5-4.511-2.506a15.005,15.005,0,0,1-4.01-2.005c-1.5-1-3.509-1.5-5.013-2.506-1.5-.5-3.007-1.5-4.511-2.005-2.506-1-4.512-2-7.018-3.007-1-.5-4.01-1.5-4.01-1.5a17.8,17.8,0,0,1-4.511-2c-1.5-.5-2.506-1-4.01-1.5a20.946,20.946,0,0,1-5.013-2,18.178,18.178,0,0,1-3.509-1.5,37.567,37.567,0,0,0-8.02-2.506c-1-.5-2.005-.5-3.007-1h-1l-4.511-1.5-4.511-1.5-4.512-1.5a22.742,22.742,0,0,0-4.01-1c-2.506-.5-5.013-1.5-7.519-2.005a31.955,31.955,0,0,1-4.511-1c-1.5-.5-3.008-.5-4.511-1s-3.008-.5-4.511-1a40.816,40.816,0,0,0-4.512-1c-1.5-.5-3.007-.5-4.511-1a22.74,22.74,0,0,1-4.01-1c-3.007-.5-5.514-1-8.02-1.5l-3.509-.5c-1.5-.5-3.509-.5-5.013-1l-3.509-.5a17.049,17.049,0,0,0-5.013-.5l-2.506-.5c-3.509-.5-7.519-1-11.028-1.5h-2.005c-2.005,0-4.01-.5-5.514-.5h-2.506c-2.005,0-4.01-.5-6.015-.5h-1.5c-6.516-.5-13.033-1-20.05-1h-7.519a262.148,262.148,0,0,0-28.071,0c-13.534,0-28.071,1-42.106,2.005-99.25,8.02-171.933,36.091-172.935,36.592a52.871,52.871,0,0,1-12.03,3.008c-20.05,1.5-39.6-11.529-46.617-32.582C36.58,132.281,48.61,103.709,72.17,94.687c3.008-1,71.179-27.569,168.925-39.1,9.023-1,18.547-2,27.569-3.008a704.835,704.835,0,0,1,138.348,2.005c66.668,8.02,128.824,27.068,183.963,56.141,15.038,8.02,25.063,24.061,26.065,42.607a48.718,48.718,0,0,1-2.506,19.048,17.8,17.8,0,0,1-2.005,4.511C606.514,193.937,592.479,204.964,576.439,205.967Z" transform="translate(135.854 188.025)"/>
        <path id="Path_101" data-name="Path 101" class="cls-2" d="M488.388,213.935h-3.509c-5.013-.5-10.025-1.5-14.536-4.01-3.509-1.5-7.018-3.509-11.028-5.514l-2.005-1c-7.018-3.509-14.536-6.516-22.055-9.524l-2.506-1c-7.018-2.506-14.536-5.013-22.055-7.519l-2.507-.5-10.526-3.007h-.5a87.312,87.312,0,0,0-11.028-2.506l-2.507-.5a77.785,77.785,0,0,0-10.526-2.005h-.5c-4.01-.5-7.519-1.5-11.028-2.005l-2.506-.5-10.527-1.5h0c-4.01-.5-7.519-1-11.028-1.5h-2c-3.509-.5-7.018-.5-10.527-1a81.233,81.233,0,0,0-11.028-.5h-1.5c-7.018-.5-14.035-.5-21.053-.5H277.859c-11.028,0-22.055,1-33.584,1.5-6.015.5-12.03,1-17.544,2.005-69.675,8.02-119.8,27.068-121.807,28.071A58.615,58.615,0,0,1,94.9,203.409c-17.043,1.5-33.585-10.025-39.6-27.569C47.779,154.285,57.8,130.225,77.855,122.2,80.361,121.2,136,99.648,215.7,90.124c7.519-1,15.038-1.5,22.557-2.506,39.1-3.008,76.693-2.506,112.784,2.005,54.638,6.516,105.265,22.056,150.379,46.116a42.453,42.453,0,0,1,9.524,7.018,44.339,44.339,0,0,1,10.526,44.612c-.5,1.5-1,2.506-1.5,4.01-6.015,13.534-17.544,22.055-31.579,23.559h0c1.5-1,1-1,0-1" transform="translate(176.786 330.936)"/>
        <g id="Group_22" data-name="Group 22" transform="translate(0)">
          <path id="Path_110" data-name="Path 110" class="cls-3" d="M473.674,935.949C216.527,935.949,7,726.923,7,469.275S216.527,2.6,473.674,2.6a471.558,471.558,0,0,1,222.56,56.141,25.9,25.9,0,0,1-24.562,45.615,417.254,417.254,0,0,0-197.5-50.126C245.6,54.23,59.131,240.2,59.131,469.275S245.1,884.319,474.176,884.319,889.22,698.351,889.22,469.275a410.482,410.482,0,0,0-78.2-242.109c-8.521-11.529-5.514-27.569,6.015-36.091s27.569-5.514,36.091,6.015c57.645,79.7,87.721,173.938,87.721,272.686C940.349,726.923,730.822,935.949,473.674,935.949Z" transform="translate(-7 -2.6)"/>
          <circle id="Ellipse_5" data-name="Ellipse 5" class="cls-4" cx="50.126" cy="50.126" r="50.126" transform="translate(702.268 91.23)"/>
        </g>
      </g>
    </g>
  </g>
</svg>
