<svg id="Group_110" data-name="Group 110" xmlns="http://www.w3.org/2000/svg" viewBox="-581.4 -146.5 424.8 110">
  <defs>
    <style>
      .cls-1, .cls-2, .cls-3 {
        fill: #fff;
      }

      .cls-1 {
        opacity: 0.65;
      }

      .cls-3 {
        font-size: 20px;
        font-family: SourceSansPro-Regular, Source Sans Pro;
        letter-spacing: 0.104em;
      }
    </style>
  </defs>
  <path id="Path_75" data-name="Path 75" class="cls-1" d="M341.8,192c-.3,0-.7-.1-1-.1h-.2c-.3,0-.6-.1-.9-.1h-.1a3.4,3.4,0,0,1-1-.1h-2.1c-1.3,0-2.7.1-4.1.2a11.02,11.02,0,0,0-1.8.2,48.928,48.928,0,0,0-12.1,2.8,3.553,3.553,0,0,1-1,.2,4.162,4.162,0,0,1-4.1-2.8,4.377,4.377,0,0,1,2.3-5.5,60.876,60.876,0,0,1,13.7-3.2,16.351,16.351,0,0,1,2.2-.2c1.3-.1,2.6-.2,3.8-.2h.8a47.758,47.758,0,0,1,6.6.4,43.775,43.775,0,0,1,15,4.6,4.478,4.478,0,0,1,2,5.3.758.758,0,0,1-.2.4,3.792,3.792,0,0,1-3.2,2.4,3.444,3.444,0,0,1-2-.4h-.1c-.3-.2-.6-.3-.9-.5a.367.367,0,0,0-.3-.1c-.3-.1-.5-.3-.8-.4l-.2-.1c-.3-.1-.7-.3-1-.4l-.3-.1c-.3-.1-.5-.2-.8-.3l-.2-.1c-.3-.1-.7-.2-1-.3l-.2-.1a3.091,3.091,0,0,0-.8-.2l-.3-.1c-.3-.1-.7-.2-1-.3h-.2c-.3-.1-.6-.1-.9-.2l-.3-.1c-.3-.1-.7-.1-1-.2-.4-.1-.7-.1-1-.2h-.2a5.162,5.162,0,0,0-1.1-.2" transform="translate(-863 -262)"/>
  <path id="Path_76" data-name="Path 76" class="cls-1" d="M365.5,161.9a4.764,4.764,0,0,1-2.8-.6l-.3-.1a4.875,4.875,0,0,0-.7-.3c-.1-.1-.3-.1-.4-.2h-.1l-.6-.3c-.2-.1-.3-.1-.5-.2l-.6-.3c-.2-.1-.3-.1-.5-.2-.3-.1-.5-.2-.8-.3a2.566,2.566,0,0,1-.5-.2c-.2-.1-.4-.1-.6-.2s-.3-.1-.5-.2-.4-.1-.6-.2a1.425,1.425,0,0,1-.4-.2l-.9-.3c-.1,0-.3-.1-.4-.1h-.1c-.2-.1-.4-.1-.5-.2a.9.9,0,0,0-.5-.1c-.2-.1-.4-.1-.5-.2a4.331,4.331,0,0,0-.5-.1,2.92,2.92,0,0,0-.9-.2,4.331,4.331,0,0,1-.5-.1c-.2,0-.3-.1-.5-.1a4.331,4.331,0,0,1-.5-.1,2.034,2.034,0,0,1-.5-.1c-.2,0-.3-.1-.5-.1a4.331,4.331,0,0,1-.5-.1c-.3-.1-.6-.1-1-.2l-.4-.1c-.2,0-.4-.1-.6-.1l-.4-.1c-.2,0-.4-.1-.6-.1H345c-.4-.1-.9-.1-1.3-.2h-.2a1.952,1.952,0,0,1-.7-.1h-.3a1.7,1.7,0,0,1-.7-.1h-.2a18.483,18.483,0,0,0-2.3-.1h-4.2c-1.6,0-3.3.1-5,.2a82.023,82.023,0,0,0-20.3,4.3,3.529,3.529,0,0,1-1.4.3,5.506,5.506,0,0,1-5.5-3.9,6.069,6.069,0,0,1,3.1-7.5,85.786,85.786,0,0,1,19.9-4.6c1.1-.1,2.2-.2,3.2-.3a73.594,73.594,0,0,1,16.3.3,63.908,63.908,0,0,1,21.7,6.6,5.942,5.942,0,0,1,3.1,5,9.08,9.08,0,0,1-.3,2.3c-.1.2-.1.4-.2.5A4.744,4.744,0,0,1,365.5,161.9Z" transform="translate(-863 -262)"/>
  <path id="Path_77" data-name="Path 77" class="cls-1" d="M359.9,179.7h-.4a3.371,3.371,0,0,1-1.7-.5c-.4-.2-.8-.4-1.3-.6l-.2-.1a20.292,20.292,0,0,0-2.6-1.1l-.3-.1c-.8-.3-1.7-.6-2.6-.9l-.3-.1-1.2-.3h0c-.4-.1-.9-.2-1.3-.3l-.3-.1-1.2-.3h0a5.852,5.852,0,0,0-1.3-.2h-.3c-.4-.1-.8-.1-1.2-.2h0c-.4-.1-.9-.1-1.3-.2h-.2c-.4,0-.8-.1-1.2-.1s-.9-.1-1.3-.1h-.2c-.8,0-1.7-.1-2.5-.1h-1.6c-1.3,0-2.6.1-3.9.2-.7.1-1.4.1-2.1.2a62.3,62.3,0,0,0-14.4,3.3l-1.2.3a4.555,4.555,0,0,1-4.6-3.3,4.965,4.965,0,0,1,2.6-6.3A71.59,71.59,0,0,1,328,165l2.7-.3a65.241,65.241,0,0,1,13.3.2,51.5,51.5,0,0,1,17.7,5.4,4.44,4.44,0,0,1,1.1.8,5.381,5.381,0,0,1,1.2,5.3c-.1.2-.1.3-.2.5a4.634,4.634,0,0,1-3.7,2.8h-.2" transform="translate(-863 -262)"/>
  <path id="Path_78" data-name="Path 78" class="cls-2" d="M404.3,177.7V144.8a4.08,4.08,0,0,1,1.3-3.2,4.377,4.377,0,0,1,3.2-1.3h14.5c5.3,0,9.3,1.4,12.2,4.2a12.9,12.9,0,0,1,3.6,9.5v.1c0,6.2-2.8,10.4-8.3,12.7l6.4,7.7a5.839,5.839,0,0,1,1.5,3.5,3.8,3.8,0,0,1-1.3,3,4.41,4.41,0,0,1-3,1.2,5.431,5.431,0,0,1-4.5-2.4L421,168.5h-7.3v9.1a4.08,4.08,0,0,1-1.3,3.2,4.377,4.377,0,0,1-3.2,1.3,4.08,4.08,0,0,1-3.2-1.3A3.274,3.274,0,0,1,404.3,177.7Zm9.1-17.2h9.3a7.706,7.706,0,0,0,5.2-1.6,5.279,5.279,0,0,0,1.9-4.3v-.1a5.219,5.219,0,0,0-1.9-4.4,8.355,8.355,0,0,0-5.3-1.5h-9.1v11.9Z" transform="translate(-863 -262)"/>
  <path id="Path_79" data-name="Path 79" class="cls-2" d="M451.9,181.9a4.08,4.08,0,0,1-3.2-1.3,4.377,4.377,0,0,1-1.3-3.2V144.9a4.08,4.08,0,0,1,1.3-3.2,4.377,4.377,0,0,1,3.2-1.3H475a3.847,3.847,0,0,1,2.9,1.2,4.1,4.1,0,0,1-2.9,7H456.4v8.5h15.9a4.1,4.1,0,1,1,0,8.2H456.4v8.8h18.9a4.1,4.1,0,1,1,0,8.2H451.9Z" transform="translate(-863 -262)"/>
  <path id="Path_80" data-name="Path 80" class="cls-2" d="M484.4,178a6.419,6.419,0,0,1,.5-2l14.5-32.8a5.581,5.581,0,0,1,5.4-3.6h.5a5.454,5.454,0,0,1,5.3,3.6L525.1,176a4.925,4.925,0,0,1,.5,1.8,4.439,4.439,0,0,1-4.4,4.4,4.639,4.639,0,0,1-4.4-3.2l-2.8-6.6H495.6l-2.9,6.9a4.288,4.288,0,0,1-4.2,2.9,3.8,3.8,0,0,1-3-1.3A4,4,0,0,1,484.4,178Zm14.8-13.5h11.6L505,150.7Z" transform="translate(-863 -262)"/>
  <path id="Path_81" data-name="Path 81" class="cls-2" d="M532.9,177.3V144.4a4.08,4.08,0,0,1,1.3-3.2,4.377,4.377,0,0,1,3.2-1.3,4.08,4.08,0,0,1,3.2,1.3,4.377,4.377,0,0,1,1.3,3.2v29.1h17a4.234,4.234,0,0,1,3,1.2,4.07,4.07,0,0,1,1.2,3,4.234,4.234,0,0,1-1.2,3,4.07,4.07,0,0,1-3,1.2H537.3a4.08,4.08,0,0,1-3.2-1.3A5.317,5.317,0,0,1,532.9,177.3Z" transform="translate(-863 -262)"/>
  <path id="Path_82" data-name="Path 82" class="cls-2" d="M573.6,177.7v-29h-8.8a3.946,3.946,0,0,1-3-1.3,4.157,4.157,0,0,1-1.3-3,3.946,3.946,0,0,1,1.3-3,4.157,4.157,0,0,1,3-1.3h26.8a3.946,3.946,0,0,1,3,1.3,4.157,4.157,0,0,1,1.3,3,3.946,3.946,0,0,1-1.3,3,4.157,4.157,0,0,1-3,1.3h-8.8v29a4.08,4.08,0,0,1-1.3,3.2,4.377,4.377,0,0,1-3.2,1.3,4.08,4.08,0,0,1-3.2-1.3A3.788,3.788,0,0,1,573.6,177.7Z" transform="translate(-863 -262)"/>
  <path id="Path_83" data-name="Path 83" class="cls-2" d="M602.9,177.7V144.4a4.08,4.08,0,0,1,1.3-3.2,4.377,4.377,0,0,1,3.2-1.3,4.08,4.08,0,0,1,3.2,1.3,4.377,4.377,0,0,1,1.3,3.2v33.3a4.08,4.08,0,0,1-1.3,3.2,4.377,4.377,0,0,1-3.2,1.3,4.08,4.08,0,0,1-3.2-1.3A4.626,4.626,0,0,1,602.9,177.7Z" transform="translate(-863 -262)"/>
  <path id="Path_84" data-name="Path 84" class="cls-2" d="M622.5,177.8V144.5a4.08,4.08,0,0,1,1.3-3.2A4.377,4.377,0,0,1,627,140h1a4.7,4.7,0,0,1,4.2,2.4l11.1,18.1,11.1-18.1a4.653,4.653,0,0,1,4.1-2.3h1a4.08,4.08,0,0,1,3.2,1.3,4.377,4.377,0,0,1,1.3,3.2v33.1a4.08,4.08,0,0,1-1.3,3.2,4.5,4.5,0,0,1-7.7-3.2V156.9l-8,12.4a4.289,4.289,0,0,1-7.6,0l-7.9-12.2v20.7a4.377,4.377,0,0,1-1.3,3.2,4.224,4.224,0,0,1-3.2,1.3,4.377,4.377,0,0,1-3.2-1.3A4.816,4.816,0,0,1,622.5,177.8Z" transform="translate(-863 -262)"/>
  <path id="Path_85" data-name="Path 85" class="cls-2" d="M678.9,181.9a4.08,4.08,0,0,1-3.2-1.3,4.377,4.377,0,0,1-1.3-3.2V144.9a4.08,4.08,0,0,1,1.3-3.2,4.377,4.377,0,0,1,3.2-1.3H702a3.847,3.847,0,0,1,2.9,1.2,4.1,4.1,0,0,1-2.9,7H683.4v8.5h15.9a4.1,4.1,0,1,1,0,8.2H683.4v8.8h18.9a4.1,4.1,0,1,1,0,8.2H678.9Z" transform="translate(-863 -262)"/>
  <path id="Path_98" data-name="Path 98" class="cls-2" d="M336.6,225.5a55,55,0,1,1,26.2-103.4,3.021,3.021,0,1,1-2.9,5.3,49.114,49.114,0,1,0,16.4,14.5,3.081,3.081,0,0,1,5-3.6,54.346,54.346,0,0,1,10.3,32.1A55.183,55.183,0,0,1,336.6,225.5Z" transform="translate(-863 -262)"/>
  <circle id="Ellipse_4" data-name="Ellipse 4" class="cls-2" cx="5.9" cy="5.9" r="5.9" transform="translate(-498.1 -135.7)"/>
  <text id="COBERTURAS_DE_NOTÍCIAS" data-name="COBERTURAS DE NOTÍCIAS" class="cls-3" transform="translate(-444 -51)"><tspan x="0" y="0">COBERTURAS DE NOTÍCIAS</tspan></text>
</svg>
