<svg xmlns="http://www.w3.org/2000/svg" viewBox="-728 138 575.196 148.835">
  <defs>
    <style>
      .cls-1, .cls-2 {
        fill: #fff;
      }

      .cls-1, .cls-3 {
        opacity: 0.65;
      }
    </style>
  </defs>
  <g id="Group_104" data-name="Group 104" transform="translate(-1391)">
    <path id="Path_149" data-name="Path 149" class="cls-1" d="M97.643,129.51c-.48-.08-.959-.08-1.439-.16h-.24c-.4,0-.8-.08-1.279-.08h-.16c-.48,0-.959-.08-1.359-.08H90.289q-2.758,0-5.515.24l-2.4.24a78.092,78.092,0,0,0-16.386,3.757,4.739,4.739,0,0,1-1.359.32,5.527,5.527,0,0,1-5.515-3.837,5.9,5.9,0,0,1,3.117-7.434,79.057,79.057,0,0,1,18.624-4.316c1.039-.08,2-.24,3.037-.32,1.759-.16,3.437-.24,5.2-.24h1.119a81.777,81.777,0,0,1,8.952.48,56.843,56.843,0,0,1,20.3,6.235,6.153,6.153,0,0,1,2.8,7.274c-.08.16-.16.4-.24.56a5.352,5.352,0,0,1-4.4,3.277,5.205,5.205,0,0,1-2.718-.56l-.08-.08c-.4-.24-.8-.4-1.2-.639a1.748,1.748,0,0,1-.4-.24c-.4-.16-.719-.32-1.119-.48l-.4-.32c-.48-.16-.879-.4-1.359-.56l-.4-.16c-.4-.16-.719-.24-1.119-.4l-.32-.08c-.48-.16-.879-.32-1.359-.48l-.32-.08c-.4-.08-.719-.24-1.119-.32l-.32-.08a10.9,10.9,0,0,0-1.359-.32l-.24-.08-1.2-.24-.32-.08-1.439-.24-1.439-.24-.32-.08a8.81,8.81,0,0,0-1.439-.16" transform="translate(646.809 112.003)"/>
    <path id="Path_150" data-name="Path 150" class="cls-1" d="M126.229,75.36a6.961,6.961,0,0,1-3.757-.8l-.4-.24a8.719,8.719,0,0,1-.879-.48,3.9,3.9,0,0,0-.56-.24l-.08-.08c-.24-.16-.48-.24-.719-.4a2.393,2.393,0,0,1-.639-.32c-.24-.16-.56-.24-.8-.4-.24-.08-.48-.24-.719-.32-.4-.16-.719-.32-1.119-.48-.16-.08-.639-.24-.639-.24a2.839,2.839,0,0,1-.719-.32c-.24-.08-.4-.16-.639-.24a3.34,3.34,0,0,1-.8-.32,2.9,2.9,0,0,1-.56-.24,5.99,5.99,0,0,0-1.279-.4c-.16-.08-.32-.08-.48-.16h-.16l-.719-.24-.719-.24-.719-.24a3.627,3.627,0,0,0-.639-.16c-.4-.08-.8-.24-1.2-.32a5.1,5.1,0,0,1-.719-.16c-.24-.08-.48-.08-.719-.16s-.48-.08-.719-.16a6.512,6.512,0,0,0-.719-.16c-.24-.08-.48-.08-.719-.16a3.627,3.627,0,0,1-.639-.16c-.48-.08-.879-.16-1.279-.24l-.56-.08c-.24-.08-.56-.08-.8-.16l-.56-.08a2.719,2.719,0,0,0-.8-.08l-.4-.08c-.56-.08-1.2-.16-1.759-.24h-.32c-.32,0-.639-.08-.879-.08h-.4c-.32,0-.639-.08-.959-.08H94.1c-1.039-.08-2.078-.16-3.2-.16H89.7a41.8,41.8,0,0,0-4.476,0c-2.158,0-4.476.16-6.714.32A106.508,106.508,0,0,0,50.932,72.4a8.431,8.431,0,0,1-1.918.48,7.4,7.4,0,0,1-7.434-5.2c-1.439-4.077.48-8.633,4.236-10.072a120.211,120.211,0,0,1,26.937-6.235c1.439-.16,2.958-.32,4.4-.48a112.4,112.4,0,0,1,22.061.32,84.345,84.345,0,0,1,29.335,8.952,8.111,8.111,0,0,1,4.156,6.794A7.769,7.769,0,0,1,132.3,70a2.839,2.839,0,0,1-.32.719A6.753,6.753,0,0,1,126.229,75.36Z" transform="translate(650.356 125.467)"/>
    <path id="Path_151" data-name="Path 151" class="cls-1" d="M120.762,106.567h-.56a5.912,5.912,0,0,1-2.318-.639c-.56-.24-1.119-.56-1.759-.879l-.32-.16c-1.119-.56-2.318-1.039-3.517-1.519l-.4-.16c-1.119-.4-2.318-.8-3.517-1.2l-.4-.08-1.679-.48h-.08a13.921,13.921,0,0,0-1.759-.4l-.4-.08a12.409,12.409,0,0,0-1.679-.32h-.08c-.639-.08-1.2-.24-1.759-.32l-.4-.08-1.679-.24h0c-.639-.08-1.2-.16-1.759-.24h-.32c-.56-.08-1.119-.08-1.679-.16a12.952,12.952,0,0,0-1.759-.08h-.24c-1.119-.08-2.238-.08-3.357-.08H87.19c-1.759,0-3.517.16-5.355.24-.959.08-1.918.16-2.8.32a83.408,83.408,0,0,0-19.424,4.476,9.349,9.349,0,0,1-1.6.4,6.294,6.294,0,0,1-6.315-4.4,6.784,6.784,0,0,1,3.6-8.553,96.811,96.811,0,0,1,21.982-5.116c1.2-.16,2.4-.24,3.6-.4a89.525,89.525,0,0,1,17.985.32A67.775,67.775,0,0,1,122.84,94.1a6.768,6.768,0,0,1,1.519,1.119,7.07,7.07,0,0,1,1.679,7.114c-.08.24-.16.4-.24.639a6.145,6.145,0,0,1-5.036,3.757h0c.24-.16.16-.16,0-.16" transform="translate(648.309 118.32)"/>
    <g id="Group_16" data-name="Group 16" transform="translate(829.02 170.533)">
      <path id="Path_152" data-name="Path 152" class="cls-2" d="M213.2,95.537v-44.6a6.277,6.277,0,0,1,6.235-6.235h19.584c7.194,0,12.629,1.918,16.466,5.755,3.2,3.2,4.876,7.514,4.876,12.949v.16c0,8.313-3.757,14.068-11.271,17.186l8.633,10.471a7.876,7.876,0,0,1,2,4.8,5.1,5.1,0,0,1-1.759,4.077,6.1,6.1,0,0,1-4.077,1.6,7.549,7.549,0,0,1-6.155-3.2l-12.07-15.347h-9.912v12.31a6.217,6.217,0,0,1-10.631,4.4A5.589,5.589,0,0,1,213.2,95.537ZM225.669,72.2h12.549a10.346,10.346,0,0,0,6.954-2.158,7.282,7.282,0,0,0,2.558-5.835v-.16a7.283,7.283,0,0,0-2.558-5.995,11.333,11.333,0,0,0-7.194-2.078h-12.31Z" transform="translate(-213.2 -43.901)"/>
      <path id="Path_153" data-name="Path 153" class="cls-2" d="M292.435,101.212a6.277,6.277,0,0,1-6.235-6.235V50.935a6.277,6.277,0,0,1,6.235-6.235h31.334a5.3,5.3,0,0,1,3.917,1.6,5.432,5.432,0,0,1,1.6,3.917,5.25,5.25,0,0,1-1.6,3.837,5.432,5.432,0,0,1-3.917,1.6H298.59v11.43h21.582a5.737,5.737,0,0,1,5.6,5.6,5.25,5.25,0,0,1-1.6,3.837,5.432,5.432,0,0,1-3.917,1.6H298.67v11.83h25.578a5.737,5.737,0,0,1,5.6,5.6,5.25,5.25,0,0,1-1.6,3.837,5.432,5.432,0,0,1-3.917,1.6H292.435Z" transform="translate(-227.849 -43.901)"/>
      <path id="Path_154" data-name="Path 154" class="cls-2" d="M349,95.736a6.561,6.561,0,0,1,.719-2.638l19.663-44.443c1.439-3.277,3.837-4.956,7.274-4.956h.719c3.357,0,5.755,1.679,7.194,4.956L404.234,93.1a7.065,7.065,0,0,1,.639,2.478,5.869,5.869,0,0,1-5.835,5.995q-4.077,0-5.995-4.316l-3.757-8.873H364.427l-3.917,9.272a5.854,5.854,0,0,1-5.755,3.837A5.731,5.731,0,0,1,349,95.736Zm20.063-18.3H384.73L376.9,58.807Z" transform="translate(-240.451 -43.7)"/>
      <path id="Path_155" data-name="Path 155" class="cls-2" d="M431.2,94.937v-44.6a6.235,6.235,0,0,1,12.469,0V89.822H466.69a5.675,5.675,0,0,1,0,11.35H437.435a5.973,5.973,0,0,1-4.4-1.838A6.1,6.1,0,0,1,431.2,94.937Z" transform="translate(-256.947 -43.78)"/>
      <path id="Path_156" data-name="Path 156" class="cls-2" d="M495.685,95.577V56.25h-11.91a5.373,5.373,0,0,1-4-1.679,5.5,5.5,0,0,1-1.679-4,5.373,5.373,0,0,1,1.679-4,5.5,5.5,0,0,1,4-1.679h36.289a5.373,5.373,0,0,1,4,1.679,5.5,5.5,0,0,1,1.679,4,5.373,5.373,0,0,1-1.679,4,5.5,5.5,0,0,1-4,1.679h-11.91V95.577a6.217,6.217,0,0,1-10.631,4.4A5.8,5.8,0,0,1,495.685,95.577Z" transform="translate(-266.358 -43.941)"/>
      <path id="Path_157" data-name="Path 157" class="cls-2" d="M549.7,95.417V50.335a6.235,6.235,0,0,1,12.47,0v45a6.217,6.217,0,0,1-10.631,4.4A5.8,5.8,0,0,1,549.7,95.417Z" transform="translate(-280.726 -43.78)"/>
      <path id="Path_158" data-name="Path 158" class="cls-2" d="M582.9,95.617V50.535a6.277,6.277,0,0,1,6.235-6.235h1.359a6.192,6.192,0,0,1,5.675,3.2L611.2,72.037,626.3,47.5a6.15,6.15,0,0,1,5.6-3.117h1.359a6.277,6.277,0,0,1,6.235,6.235V95.457a6.195,6.195,0,0,1-12.39,0V67.241L616.232,84.027c-1.439,2.078-3.117,3.117-5.2,3.117s-3.757-1.039-5.2-3.117L595.13,67.48V95.537a6.162,6.162,0,0,1-10.471,4.316A5.989,5.989,0,0,1,582.9,95.617Z" transform="translate(-287.389 -43.82)"/>
      <path id="Path_159" data-name="Path 159" class="cls-2" d="M676.835,101.212a6.277,6.277,0,0,1-6.235-6.235V50.935a6.277,6.277,0,0,1,6.235-6.235h31.334a5.3,5.3,0,0,1,3.917,1.6,5.432,5.432,0,0,1,1.6,3.917,5.25,5.25,0,0,1-1.6,3.837,5.431,5.431,0,0,1-3.917,1.6H682.91v11.43h21.582a5.737,5.737,0,0,1,5.6,5.6,5.25,5.25,0,0,1-1.6,3.837,5.432,5.432,0,0,1-3.917,1.6H682.99v11.83h25.578a5.737,5.737,0,0,1,5.6,5.6,5.25,5.25,0,0,1-1.6,3.837,5.432,5.432,0,0,1-3.917,1.6H676.835Z" transform="translate(-304.988 -43.901)"/>
    </g>
    <g id="Group_17" data-name="Group 17" transform="translate(663 138)">
      <path id="Path_160" data-name="Path 160" class="cls-2" d="M79.917,151.835A74.417,74.417,0,0,1,79.917,3a75.2,75.2,0,0,1,35.49,8.952,4.131,4.131,0,1,1-3.917,7.274,66.172,66.172,0,1,0,34.691,58.191A65.457,65.457,0,0,0,133.712,38.81a4.126,4.126,0,1,1,6.714-4.8A73.658,73.658,0,0,1,154.415,77.5,74.641,74.641,0,0,1,79.917,151.835Z" transform="translate(-5.5 -3)"/>
      <circle id="Ellipse_13" data-name="Ellipse 13" class="cls-2" cx="7.993" cy="7.993" r="7.993" transform="translate(112.785 14.548)"/>
    </g>
    <g id="Group_18" data-name="Group 18" class="cls-3" transform="translate(884.334 240.314)">
      <path id="Path_161" data-name="Path 161" class="cls-2" d="M282.48,131.7h2.158l12.23,19.184h.08V131.7h2.158v22.861h-2.158l-12.31-19.184h-.08v19.184H282.4V131.7Z" transform="translate(-282.4 -131.14)"/>
      <path id="Path_162" data-name="Path 162" class="cls-2" d="M316.9,131.7h13.349v2H319.058v8.233h10.551v1.918H319.058v8.793h11.191v1.918H316.9Z" transform="translate(-289.323 -131.14)"/>
      <path id="Path_163" data-name="Path 163" class="cls-2" d="M345.158,131.7l4.716,19.5h.08l5.116-19.5h2.318l5.116,19.5h.08l4.716-19.5h2.478l-6.235,22.861h-2l-5.276-19.344h-.16l-5.276,19.344h-2L342.6,131.7Z" transform="translate(-294.481 -131.14)"/>
      <path id="Path_164" data-name="Path 164" class="cls-2" d="M386.958,148.425a4.446,4.446,0,0,0,.48,1.679,3.906,3.906,0,0,0,1.119,1.439,5.817,5.817,0,0,0,1.838,1.039,9.127,9.127,0,0,0,2.638.4,7,7,0,0,0,4.236-1.2,3.979,3.979,0,0,0,1.6-3.277,3.322,3.322,0,0,0-1.039-2.638,8.208,8.208,0,0,0-3.357-1.6l-3.677-.959a11.566,11.566,0,0,1-2-.8,8.066,8.066,0,0,1-1.679-1.2A3.89,3.89,0,0,1,386,139.633a6.563,6.563,0,0,1-.4-2.238,5.647,5.647,0,0,1,1.039-3.437,6.736,6.736,0,0,1,2.718-2.238,9.66,9.66,0,0,1,3.837-.719,8.565,8.565,0,0,1,5.355,1.679,5.757,5.757,0,0,1,2.238,4.556h-2.238a4.164,4.164,0,0,0-1.519-3.037,5.882,5.882,0,0,0-3.917-1.2,6.5,6.5,0,0,0-3.917,1.119,3.867,3.867,0,0,0-1.439,3.117c0,2,1.279,3.277,3.757,3.917l3.517.959a15.862,15.862,0,0,1,2.558.879,6.1,6.1,0,0,1,1.838,1.2,3.857,3.857,0,0,1,1.2,1.759,7.04,7.04,0,0,1,.4,2.318,5.881,5.881,0,0,1-2.318,4.876,9.3,9.3,0,0,1-5.915,1.759,11.65,11.65,0,0,1-3.037-.4,7.277,7.277,0,0,1-2.238-1.039A6.844,6.844,0,0,1,386,151.942a6.038,6.038,0,0,1-.879-1.759,13.556,13.556,0,0,1-.32-1.759h2.158Z" transform="translate(-302.949 -131)"/>
      <path id="Path_165" data-name="Path 165" class="cls-2" d="M430.9,141.172a10.954,10.954,0,0,1,2.318-7.354,7.841,7.841,0,0,1,6.395-2.718,10.631,10.631,0,0,1,3.6.639,6.086,6.086,0,0,1,2.558,1.759,9.374,9.374,0,0,1,1.519,2.4,6.164,6.164,0,0,1,.48,2.638h-2.078a5.494,5.494,0,0,0-.4-1.918,5.949,5.949,0,0,0-1.119-1.759,4.764,4.764,0,0,0-1.918-1.279,6.924,6.924,0,0,0-2.558-.48,5.978,5.978,0,0,0-4.876,2.158,9.087,9.087,0,0,0-1.759,5.995v3.757c0,2.558.56,4.556,1.759,5.915a7.027,7.027,0,0,0,9.352.56,4.9,4.9,0,0,0,1.6-3.677h2.078a6.821,6.821,0,0,1-.48,2.478,6.948,6.948,0,0,1-1.519,2.238,7.494,7.494,0,0,1-2.558,1.679,10.286,10.286,0,0,1-3.6.639,8.092,8.092,0,0,1-6.475-2.638,10.954,10.954,0,0,1-2.318-7.354Z" transform="translate(-312.2 -131.02)"/>
      <path id="Path_166" data-name="Path 166" class="cls-2" d="M463.08,141.251a10.936,10.936,0,0,1,2.4-7.434,8.113,8.113,0,0,1,6.475-2.718,8,8,0,0,1,6.474,2.718,10.935,10.935,0,0,1,2.4,7.434v3.677a10.58,10.58,0,0,1-2.4,7.354,9.363,9.363,0,0,1-13.029,0,10.58,10.58,0,0,1-2.4-7.354v-3.677Zm4,9.592a6.332,6.332,0,0,0,4.956,2.078,6.45,6.45,0,0,0,4.956-2.078,8.73,8.73,0,0,0,1.838-5.915v-3.757a9.1,9.1,0,0,0-1.838-5.995,6.139,6.139,0,0,0-4.956-2.158,5.978,5.978,0,0,0-4.876,2.158,8.688,8.688,0,0,0-1.838,5.995v3.757C465.238,147.486,465.8,149.485,467.077,150.843Z" transform="translate(-318.641 -131.02)"/>
      <path id="Path_167" data-name="Path 167" class="cls-2" d="M496.6,131.7l6.954,20.223h.16l6.954-20.223h2.4l-8.393,22.861h-2.158L494.2,131.7Z" transform="translate(-324.902 -131.14)"/>
      <path id="Path_168" data-name="Path 168" class="cls-2" d="M528.2,131.7h13.349v2H530.358v8.233h10.551v1.918H530.358v8.793h11.191v1.918H528.2Z" transform="translate(-331.725 -131.14)"/>
      <path id="Path_169" data-name="Path 169" class="cls-2" d="M557.1,131.7h7.913a7.426,7.426,0,0,1,5.276,1.838,6.579,6.579,0,0,1,1.839,4.716,7.537,7.537,0,0,1-.4,2.4,4.606,4.606,0,0,1-1.039,1.838,10.96,10.96,0,0,1-1.439,1.279,8.188,8.188,0,0,1-1.679.8l4.876,9.912h-2.478l-4.556-9.512h-6.155v9.512H557.1Zm7.514,11.43a5.882,5.882,0,0,0,3.917-1.2,4.511,4.511,0,0,0,1.359-3.437,4.572,4.572,0,0,0-1.359-3.517,5.464,5.464,0,0,0-3.757-1.279h-5.435v9.432Z" transform="translate(-337.525 -131.14)"/>
      <path id="Path_170" data-name="Path 170" class="cls-2" d="M593.673,131.7h2.158l8.233,22.861h-2.318l-2.478-7.274h-9.032l-2.478,7.274H585.6Zm4.876,13.748-3.837-11.111h-.08L590.8,145.448Z" transform="translate(-343.244 -131.14)"/>
      <path id="Path_171" data-name="Path 171" class="cls-2" d="M617.7,141.151a10.936,10.936,0,0,1,2.4-7.434A8.113,8.113,0,0,1,626.573,131a9.257,9.257,0,0,1,3.357.56,8.2,8.2,0,0,1,2.558,1.6,8.81,8.81,0,0,1,1.6,2.238,7.955,7.955,0,0,1,.639,2.638h-2.078a5.557,5.557,0,0,0-1.918-3.757,6.261,6.261,0,0,0-4.156-1.439,6.4,6.4,0,0,0-4.876,2.078c-1.279,1.359-1.839,3.437-1.839,6.075v3.437a9.8,9.8,0,0,0,1.679,6.075,5.982,5.982,0,0,0,4.956,2.238,6.683,6.683,0,0,0,4.556-1.519,5.077,5.077,0,0,0,1.759-4v-2.638h-6.395v-2h8.473v4.636a5.962,5.962,0,0,1-.32,2.078,5.132,5.132,0,0,1-.959,2,6.361,6.361,0,0,1-1.6,1.679,9.038,9.038,0,0,1-2.318,1.2,9.8,9.8,0,0,1-3.117.48,7.9,7.9,0,0,1-6.555-2.8c-1.519-1.838-2.238-4.316-2.238-7.514v-3.2Z" transform="translate(-349.686 -131)"/>
      <path id="Path_172" data-name="Path 172" class="cls-2" d="M651.6,131.7h13.349v2H653.758v8.233h10.551v1.918H653.758v8.793h11.191v1.918H651.6Z" transform="translate(-356.488 -131.14)"/>
    </g>
  </g>
</svg>
