<svg id="Group_112" data-name="Group 112" xmlns="http://www.w3.org/2000/svg" xmlns:xlink="http://www.w3.org/1999/xlink" viewBox="-575 10 399.797 103.335">
  <defs>
    <style>
      .cls-1 {
        fill: url(#linear-gradient);
      }

      .cls-2 {
        fill: url(#linear-gradient-2);
      }

      .cls-3 {
        fill: url(#linear-gradient-3);
      }

      .cls-4 {
        fill: url(#linear-gradient-4);
      }

      .cls-5 {
        fill: url(#linear-gradient-5);
      }

      .cls-6 {
        fill: url(#linear-gradient-6);
      }

      .cls-7 {
        fill: url(#linear-gradient-7);
      }

      .cls-8 {
        fill: url(#linear-gradient-8);
      }

      .cls-9 {
        fill: #ff8e01;
      }

      .cls-10 {
        fill: url(#linear-gradient-9);
      }

      .cls-11 {
        fill: #ff3b32;
      }

      .cls-12 {
        fill: #95989a;
        font-size: 20px;
        font-family: SourceSansPro-Regular, Source Sans Pro;
        letter-spacing: 0.104em;
      }
    </style>
    <linearGradient id="linear-gradient" x1="-0.119" y1="0.25" x2="1.063" y2="0.815" gradientUnits="objectBoundingBox">
      <stop offset="0" stop-color="#ff8e01"/>
      <stop offset="1" stop-color="#ff3b32"/>
    </linearGradient>
    <linearGradient id="linear-gradient-2" x1="-0.111" y1="0.228" x2="1.113" y2="0.773" xlink:href="#linear-gradient"/>
    <linearGradient id="linear-gradient-3" x1="0.164" y1="0.418" x2="1.019" y2="0.895" xlink:href="#linear-gradient"/>
    <linearGradient id="linear-gradient-4" x1="-0.215" y1="0.347" x2="1.042" y2="0.87" xlink:href="#linear-gradient"/>
    <linearGradient id="linear-gradient-5" x1="0.137" y1="0.583" x2="1.049" y2="0.142" xlink:href="#linear-gradient"/>
    <linearGradient id="linear-gradient-6" x1="-0.717" y1="0.652" x2="1.712" y2="0.348" xlink:href="#linear-gradient"/>
    <linearGradient id="linear-gradient-7" x1="-0.061" y1="0.819" x2="1.058" y2="0.181" xlink:href="#linear-gradient"/>
    <linearGradient id="linear-gradient-8" x1="-0.109" y1="0.773" x2="1.107" y2="0.231" xlink:href="#linear-gradient"/>
    <linearGradient id="linear-gradient-9" x1="0" y1="0.5" x2="0.999" y2="0.5" xlink:href="#linear-gradient"/>
  </defs>
  <g id="Group_71" data-name="Group 71" transform="translate(-459.29 32.587)">
    <path id="Path_102" data-name="Path 102" class="cls-1" d="M215.5,79.64V48.729a4.358,4.358,0,0,1,4.329-4.329h13.6c4.995,0,8.768,1.332,11.432,4a12.182,12.182,0,0,1,3.385,8.99V57.5c0,5.772-2.608,9.767-7.825,11.932l5.994,7.27a5.469,5.469,0,0,1,1.387,3.33,3.544,3.544,0,0,1-1.221,2.83,4.234,4.234,0,0,1-2.83,1.11,5.241,5.241,0,0,1-4.273-2.22l-8.38-10.655H224.1V79.64a4.317,4.317,0,0,1-7.381,3.052A4.421,4.421,0,0,1,215.5,79.64Zm8.6-16.2h8.713a7.183,7.183,0,0,0,4.828-1.5,5.056,5.056,0,0,0,1.776-4.051v-.111a5.057,5.057,0,0,0-1.776-4.162,7.869,7.869,0,0,0-4.995-1.443H224.1Z" transform="translate(-215.5 -43.79)"/>
    <path id="Path_103" data-name="Path 103" class="cls-2" d="M292.829,83.636a4.358,4.358,0,0,1-4.329-4.329V48.729a4.358,4.358,0,0,1,4.329-4.329h21.755a3.68,3.68,0,0,1,2.719,1.11,3.771,3.771,0,0,1,1.11,2.719,3.645,3.645,0,0,1-1.11,2.664A3.771,3.771,0,0,1,314.583,52H297.1v7.936h14.984a3.983,3.983,0,0,1,3.885,3.885,3.645,3.645,0,0,1-1.11,2.664,3.771,3.771,0,0,1-2.719,1.11H297.157v8.214h17.759A3.983,3.983,0,0,1,318.8,79.7a3.645,3.645,0,0,1-1.11,2.664,3.771,3.771,0,0,1-2.719,1.11H292.829Z" transform="translate(-247.988 -43.79)"/>
    <path id="Path_104" data-name="Path 104" class="cls-3" d="M351.3,79.428a4.556,4.556,0,0,1,.5-1.831l13.652-30.856A5.175,5.175,0,0,1,370.5,43.3h.5A5.154,5.154,0,0,1,376,46.741L389.648,77.6a4.906,4.906,0,0,1,.444,1.72,4.075,4.075,0,0,1-4.051,4.162,4.381,4.381,0,0,1-4.162-3l-2.608-6.16h-17.26l-2.719,6.438a4.065,4.065,0,0,1-4,2.664,3.979,3.979,0,0,1-4-4ZM365.174,66.72h10.877l-5.439-12.931Z" transform="translate(-275.936 -43.3)"/>
    <path id="Path_105" data-name="Path 105" class="cls-4" d="M433.5,79.04V48.129a4.329,4.329,0,0,1,8.657,0V75.544H458.14a3.94,3.94,0,0,1,0,7.881H437.884a4.147,4.147,0,0,1-3.052-1.276A4.083,4.083,0,0,1,433.5,79.04Z" transform="translate(-312.518 -43.523)"/>
    <path id="Path_106" data-name="Path 106" class="cls-5" d="M492.509,79.685v-27.3H484.24a3.73,3.73,0,0,1-2.775-1.165A3.819,3.819,0,0,1,480.3,48.44a3.73,3.73,0,0,1,1.165-2.775A3.819,3.819,0,0,1,484.24,44.5h25.2a3.73,3.73,0,0,1,2.775,1.165,3.819,3.819,0,0,1,1.165,2.775,3.73,3.73,0,0,1-1.165,2.775,3.819,3.819,0,0,1-2.775,1.165h-8.269v27.3a4.317,4.317,0,0,1-7.381,3.052A4.238,4.238,0,0,1,492.509,79.685Z" transform="translate(-333.345 -43.834)"/>
    <path id="Path_107" data-name="Path 107" class="cls-6" d="M552,79.373V48.129a4.329,4.329,0,0,1,8.657,0V79.373a4.317,4.317,0,0,1-7.381,3.052A4.028,4.028,0,0,1,552,79.373Z" transform="translate(-365.254 -43.523)"/>
    <path id="Path_108" data-name="Path 108" class="cls-7" d="M585.2,79.573V48.329A4.358,4.358,0,0,1,589.529,44h.943a4.3,4.3,0,0,1,3.94,2.22L604.846,63.2l10.489-17.037A4.27,4.27,0,0,1,619.219,44h.943a4.358,4.358,0,0,1,4.329,4.329V79.462a4.3,4.3,0,0,1-8.6,0V59.928l-7.548,11.654a4.088,4.088,0,0,1-7.214,0l-7.492-11.488V79.573a4.278,4.278,0,0,1-7.27,3A4.237,4.237,0,0,1,585.2,79.573Z" transform="translate(-380.029 -43.612)"/>
    <path id="Path_109" data-name="Path 109" class="cls-8" d="M677.129,83.636a4.358,4.358,0,0,1-4.329-4.329V48.729a4.358,4.358,0,0,1,4.329-4.329h21.755a3.68,3.68,0,0,1,2.719,1.11,3.771,3.771,0,0,1,1.11,2.719,3.644,3.644,0,0,1-1.11,2.664A3.771,3.771,0,0,1,698.883,52H681.4v7.936h14.984a3.983,3.983,0,0,1,3.885,3.885,3.644,3.644,0,0,1-1.11,2.664,3.771,3.771,0,0,1-2.719,1.11H681.458v8.214h17.759A3.983,3.983,0,0,1,703.1,79.7a3.644,3.644,0,0,1-1.11,2.664,3.771,3.771,0,0,1-2.719,1.11H677.129Z" transform="translate(-419.014 -43.79)"/>
  </g>
  <g id="Group_111" data-name="Group 111">
    <g id="Group_72" data-name="Group 72" transform="translate(-575 10)">
      <path id="Path_99" data-name="Path 99" class="cls-9" d="M87.261,125.469c-.333-.056-.666-.056-1-.111H86.1c-.277,0-.555-.056-.888-.056H85.1c-.333,0-.666-.056-.943-.056h-2q-1.915,0-3.829.167l-1.665.166a54.218,54.218,0,0,0-11.377,2.608,3.29,3.29,0,0,1-.943.222,3.837,3.837,0,0,1-3.829-2.664,4.1,4.1,0,0,1,2.164-5.161,54.888,54.888,0,0,1,12.931-3c.721-.055,1.387-.166,2.109-.222,1.221-.111,2.386-.166,3.607-.166H82.1a56.777,56.777,0,0,1,6.216.333,39.466,39.466,0,0,1,14.1,4.329,4.272,4.272,0,0,1,1.942,5.05c-.055.111-.111.277-.166.388a3.716,3.716,0,0,1-3.052,2.275,3.614,3.614,0,0,1-1.887-.388l-.055-.056c-.277-.166-.555-.277-.832-.444a1.213,1.213,0,0,1-.277-.166c-.277-.111-.5-.222-.777-.333l-.167-.055c-.333-.111-.61-.277-.943-.388l-.277-.111c-.277-.111-.5-.166-.777-.277l-.222-.055c-.333-.111-.61-.222-.943-.333l-.222-.055c-.278-.056-.5-.167-.777-.222l-.222-.055a7.567,7.567,0,0,0-.943-.222l-.166-.055-.832-.166-.222-.056-1-.166-1-.166-.222-.056a3.237,3.237,0,0,0-1.11-.277" transform="translate(-30.71 -53.601)"/>
      <path id="Path_100" data-name="Path 100" class="cls-9" d="M101.7,67.362a4.833,4.833,0,0,1-2.608-.555l-.277-.166a6.055,6.055,0,0,1-.61-.333,2.7,2.7,0,0,0-.388-.166l-.055-.056c-.166-.111-.333-.166-.5-.277a1.661,1.661,0,0,1-.444-.222c-.166-.111-.388-.166-.555-.277-.166-.055-.333-.166-.5-.222-.277-.111-.5-.222-.777-.333-.111-.055-.444-.167-.444-.167a1.971,1.971,0,0,1-.5-.222c-.166-.056-.277-.111-.444-.167a2.319,2.319,0,0,1-.555-.222,2.012,2.012,0,0,1-.388-.167,4.159,4.159,0,0,0-.888-.277c-.111-.056-.222-.056-.333-.111h-.111l-.5-.166-.5-.166-.5-.166a2.518,2.518,0,0,0-.444-.111c-.277-.056-.555-.167-.832-.222a3.538,3.538,0,0,1-.5-.111c-.166-.055-.333-.055-.5-.111s-.333-.056-.5-.111a4.519,4.519,0,0,0-.5-.111c-.166-.055-.333-.055-.5-.111a2.518,2.518,0,0,1-.444-.111c-.333-.055-.61-.111-.888-.166l-.388-.055c-.166-.056-.388-.056-.555-.111l-.388-.055a1.888,1.888,0,0,0-.555-.056l-.277-.055c-.388-.055-.832-.111-1.221-.166h-.222c-.222,0-.444-.055-.61-.055h-.277c-.222,0-.444-.055-.666-.055h-.166c-.721-.055-1.443-.111-2.22-.111h-.832a29.022,29.022,0,0,0-3.108,0c-1.5,0-3.108.111-4.662.222a73.948,73.948,0,0,0-19.146,4.051,5.854,5.854,0,0,1-1.332.333,5.135,5.135,0,0,1-5.161-3.607,5.508,5.508,0,0,1,2.941-6.993,83.462,83.462,0,0,1,18.7-4.329c1-.111,2.053-.222,3.052-.333a78.035,78.035,0,0,1,15.317.222,58.56,58.56,0,0,1,20.367,6.216,5.631,5.631,0,0,1,2.886,4.717,5.394,5.394,0,0,1-.277,2.109,1.972,1.972,0,0,1-.222.5A4.606,4.606,0,0,1,101.7,67.362Z" transform="translate(-22.844 -23.742)"/>
      <path id="Path_101" data-name="Path 101" class="cls-9" d="M101.027,99.917h-.388a4.1,4.1,0,0,1-1.609-.444c-.388-.167-.777-.388-1.221-.61l-.222-.111c-.777-.388-1.609-.721-2.442-1.054l-.277-.111c-.777-.277-1.609-.555-2.442-.832l-.278-.056-1.165-.333h-.055a9.666,9.666,0,0,0-1.221-.277l-.278-.055a8.613,8.613,0,0,0-1.165-.222h-.055c-.444-.056-.832-.167-1.221-.222l-.277-.055-1.165-.166h0c-.444-.055-.832-.111-1.221-.167H84.1c-.388-.055-.777-.055-1.165-.111a8.994,8.994,0,0,0-1.221-.055h-.166c-.777-.056-1.554-.056-2.331-.056h-1.5c-1.221,0-2.442.111-3.718.166-.666.055-1.332.111-1.942.222a57.911,57.911,0,0,0-13.486,3.108,6.489,6.489,0,0,1-1.11.277A4.37,4.37,0,0,1,53.078,95.7a4.71,4.71,0,0,1,2.5-5.938,67.213,67.213,0,0,1,15.262-3.552c.832-.111,1.665-.167,2.5-.277a62.157,62.157,0,0,1,12.487.222,47.055,47.055,0,0,1,16.649,5.106,4.7,4.7,0,0,1,1.054.777,4.909,4.909,0,0,1,1.165,4.939c-.055.166-.111.277-.166.444a4.267,4.267,0,0,1-3.5,2.608h0c.166-.111.111-.111,0-.111" transform="translate(-27.383 -39.592)"/>
      <g id="Group_22" data-name="Group 22" transform="translate(0)">
        <path id="Path_110" data-name="Path 110" class="cls-10" d="M58.667,105.935a51.667,51.667,0,0,1,0-103.335,52.208,52.208,0,0,1,24.64,6.216,2.868,2.868,0,1,1-2.719,5.05,45.942,45.942,0,1,0,24.085,40.4,45.446,45.446,0,0,0-8.657-26.8,2.864,2.864,0,1,1,4.662-3.33,51.14,51.14,0,0,1,9.712,30.19A51.787,51.787,0,0,1,58.667,105.935Z" transform="translate(-7 -2.6)"/>
        <circle id="Ellipse_5" data-name="Ellipse 5" class="cls-11" cx="5.55" cy="5.55" r="5.55" transform="translate(77.751 10.1)"/>
      </g>
    </g>
  </g>
  <text id="COBERTURAS_DE_NOTÍCIAS" data-name="COBERTURAS DE NOTÍCIAS" class="cls-12" transform="translate(-455 103)"><tspan x="0" y="0">COBERTURAS DE NOTÍCIAS</tspan></text>
</svg>
